{"glyphs":{"0":{"ha":838,"x_min":32,"x_max":799,"o":"m 406 250 q 540 449 507 288 q 533 686 568 583 q 453 750 506 774 q 444 746 449 749 q 324 549 371 703 q 307 303 278 396 q 406 250 331 222 m 471 954 q 714 874 621 1011 q 793 538 799 747 q 674 154 786 307 q 393 -1 567 8 q 151 113 257 -10 q 39 411 43 236 q 207 796 32 633 q 471 954 311 893 z "},"1":{"ha":461,"x_min":14,"x_max":447,"o":"m 174 963 q 438 740 425 1013 q 324 208 446 529 q 226 13 256 38 q 111 332 14 -74 q 140 440 121 372 q 154 494 151 483 q 173 559 158 511 q 195 640 188 607 q 199 708 203 672 q 172 758 196 744 q 111 814 135 783 q 83 874 88 844 q 101 928 78 903 q 174 963 124 953 z "},"2":{"ha":722,"x_min":-29,"x_max":721,"o":"m 465 729 q 410 735 444 740 q 342 717 376 731 q 269 690 308 704 q 201 669 231 676 q 147 668 171 661 q 116 703 122 675 q 118 788 110 731 q 158 868 126 832 q 232 926 189 904 q 325 959 275 947 q 424 970 375 971 q 510 957 472 969 q 644 890 594 931 q 707 803 693 849 q 711 702 721 757 q 675 597 701 647 q 612 490 649 546 q 540 394 575 435 q 472 311 506 353 q 426 251 438 269 q 423 230 417 233 q 451 224 429 226 q 497 219 474 221 q 547 203 521 218 q 586 158 572 188 q 581 53 615 99 q 482 0 547 7 q 373 -2 449 -6 q 220 8 297 1 q 76 37 143 15 q -8 89 8 58 q -8 167 -28 124 q 60 253 13 210 q 167 342 107 296 q 289 438 228 389 q 397 533 350 486 q 465 632 444 581 q 465 729 485 683 z "},"3":{"ha":663,"x_min":-4,"x_max":654,"o":"m 433 683 q 417 725 440 710 q 357 745 394 740 q 275 753 319 750 q 195 764 231 757 q 140 786 160 771 q 135 834 121 801 q 200 917 149 867 q 335 970 251 968 q 492 935 418 972 q 606 840 567 899 q 649 726 644 783 q 634 626 654 669 q 588 547 614 582 q 540 485 561 511 q 519 447 518 458 q 534 370 521 417 q 554 289 547 324 q 559 213 561 254 q 526 128 557 171 q 436 46 496 86 q 213 6 335 -22 q 29 138 90 33 q 2 214 7 172 q 17 290 -3 256 q 83 331 38 325 q 150 321 125 335 q 183 286 175 307 q 208 242 192 265 q 251 210 225 218 q 310 212 283 199 q 347 249 336 225 q 353 304 358 274 q 325 356 349 335 q 275 377 306 371 q 219 384 244 383 q 169 401 193 385 q 136 456 146 418 q 144 534 122 506 q 210 574 167 563 q 299 594 253 585 q 385 624 346 603 q 433 683 424 646 z "},"4":{"ha":892,"x_min":60,"x_max":885,"o":"m 656 689 q 606 642 656 689 q 508 547 557 594 q 457 496 458 499 q 526 490 503 492 q 574 494 550 488 q 607 509 597 500 q 627 545 617 518 q 642 602 638 572 q 656 689 647 632 m 626 954 q 724 970 681 969 q 794 957 767 971 q 842 921 822 943 q 869 866 861 899 q 880 799 876 833 q 878 722 883 764 q 867 644 874 681 q 850 565 861 607 q 830 494 839 524 q 810 433 821 464 q 763 265 796 392 q 707 85 731 139 q 658 17 688 40 q 602 -3 629 -6 q 551 18 575 0 q 516 74 528 36 q 510 157 504 111 q 502 256 518 226 q 447 285 486 285 q 351 283 408 286 q 217 288 293 281 q 100 336 140 296 q 71 430 60 376 q 144 528 82 483 q 296 662 183 556 q 507 858 408 768 q 626 954 606 949 z "},"5":{"ha":742,"x_min":-6,"x_max":765,"o":"m 251 233 q 392 261 338 222 q 401 328 438 294 q 358 353 386 342 q 283 374 340 360 q 187 406 226 388 q 126 453 147 424 q 109 551 110 478 q 122 704 108 624 q 171 855 136 785 q 254 939 206 925 q 338 956 279 947 q 472 968 396 965 q 614 965 547 971 q 722 929 681 958 q 756 850 764 900 q 710 773 749 800 q 622 741 672 746 q 519 731 572 736 q 424 719 465 725 q 363 683 382 713 q 360 599 343 653 q 417 568 379 582 q 490 540 456 554 q 558 503 524 526 q 617 433 593 481 q 646 317 640 386 q 583 117 656 199 q 389 8 510 36 q 275 -2 335 -6 q 163 18 215 1 q 69 76 111 35 q 13 176 28 117 q 19 294 -4 238 q 106 356 43 350 q 168 345 143 360 q 203 311 193 331 q 226 267 213 292 q 251 233 239 243 z "},"6":{"ha":728,"x_min":17,"x_max":683,"o":"m 328 385 q 303 380 315 381 q 276 378 290 379 q 251 376 261 378 q 246 340 247 354 q 245 306 244 326 q 256 273 246 286 q 283 253 265 260 q 304 249 294 249 q 322 252 314 249 q 338 259 331 256 q 354 270 346 263 q 368 283 363 278 q 382 298 374 289 q 394 311 390 307 q 417 337 407 324 q 435 365 428 350 q 433 390 442 381 q 400 401 425 400 q 377 399 389 401 q 350 391 365 396 q 328 385 335 386 m 449 963 q 550 962 514 978 q 588 911 586 946 q 568 832 590 876 q 503 749 546 788 q 500 747 503 749 q 400 649 404 661 q 410 639 397 642 q 431 635 414 638 q 567 586 514 625 q 658 475 632 539 q 671 348 683 411 q 623 224 658 285 q 535 115 588 163 q 422 39 482 67 q 107 69 217 -58 q 31 379 17 175 q 165 764 46 596 q 449 963 281 922 z "},"7":{"ha":746,"x_min":43,"x_max":767,"o":"m 490 965 q 633 964 575 975 q 718 924 692 953 q 756 857 744 894 q 756 769 767 819 q 728 672 744 719 q 683 571 713 625 q 631 478 654 517 q 579 399 607 439 q 513 302 544 347 q 426 186 481 257 q 357 94 372 115 q 196 0 272 -19 q 132 74 144 13 q 151 176 122 124 q 292 360 157 186 q 506 749 565 710 q 478 753 496 754 q 78 797 135 736 q 139 882 43 835 q 490 965 260 942 z "},"8":{"ha":688,"x_min":11,"x_max":674,"o":"m 344 274 q 327 303 339 290 q 301 322 315 317 q 269 315 286 326 q 239 276 253 304 q 234 238 228 249 q 267 221 240 228 q 337 224 318 206 q 344 274 356 242 m 375 749 q 299 680 322 738 q 303 579 275 622 q 422 599 358 490 q 450 657 439 628 q 443 730 467 703 q 375 749 419 757 m 340 963 q 478 961 414 978 q 584 901 542 944 q 649 800 626 858 q 667 669 672 742 q 629 524 663 596 q 603 468 619 503 q 562 378 567 392 q 561 360 557 365 q 563 225 581 340 q 494 78 549 139 q 354 4 439 18 q 206 6 274 -10 q 94 63 138 22 q 32 160 51 104 q 26 289 13 217 q 88 435 40 361 q 93 469 92 444 q 88 528 94 494 q 82 605 82 563 q 83 690 82 647 q 101 775 85 732 q 144 854 118 818 q 221 919 171 890 q 340 963 271 949 z "},"9":{"ha":768,"x_min":42,"x_max":781,"o":"m 290 553 q 306 522 293 533 q 341 506 318 511 q 384 500 364 501 q 432 499 404 499 q 471 499 460 499 q 521 625 510 542 q 478 735 533 724 q 375 704 440 743 q 315 637 342 683 q 290 553 288 590 m 399 960 q 715 838 639 1007 q 714 472 781 696 q 514 121 650 260 q 294 0 408 13 q 186 56 176 -14 q 275 210 193 100 q 293 236 289 229 q 290 263 301 250 q 251 289 278 275 q 195 319 225 303 q 134 363 165 335 q 85 426 103 392 q 55 596 42 508 q 115 758 68 683 q 238 888 161 833 q 399 960 314 943 z "},"\u000b":{"ha":732,"x_min":69,"x_max":663,"o":"m 69 972 l 663 972 l 663 0 l 69 0 l 69 972 m 108 944 l 365 515 l 624 944 l 108 944 m 349 486 l 99 903 l 99 68 l 349 486 m 367 457 l 110 29 l 624 29 l 367 457 m 383 486 l 635 65 l 635 906 l 383 486 z "},"\f":{"ha":732,"x_min":69,"x_max":663,"o":"m 69 972 l 663 972 l 663 0 l 69 0 l 69 972 m 108 944 l 365 515 l 624 944 l 108 944 m 349 486 l 99 903 l 99 68 l 349 486 m 367 457 l 110 29 l 624 29 l 367 457 m 383 486 l 635 65 l 635 906 l 383 486 z "},"Æ":{"ha":732,"x_min":69,"x_max":663,"o":"m 69 972 l 663 972 l 663 0 l 69 0 l 69 972 m 108 944 l 365 515 l 624 944 l 108 944 m 349 486 l 99 903 l 99 68 l 349 486 m 367 457 l 110 29 l 624 29 l 367 457 m 383 486 l 635 65 l 635 906 l 383 486 z "},"Ð":{"ha":732,"x_min":69,"x_max":663,"o":"m 69 972 l 663 972 l 663 0 l 69 0 l 69 972 m 108 944 l 365 515 l 624 944 l 108 944 m 349 486 l 99 903 l 99 68 l 349 486 m 367 457 l 110 29 l 624 29 l 367 457 m 383 486 l 635 65 l 635 906 l 383 486 z "},"×":{"ha":732,"x_min":69,"x_max":663,"o":"m 69 972 l 663 972 l 663 0 l 69 0 l 69 972 m 108 944 l 365 515 l 624 944 l 108 944 m 349 486 l 99 903 l 99 68 l 349 486 m 367 457 l 110 29 l 624 29 l 367 457 m 383 486 l 635 65 l 635 906 l 383 486 z "},"Þ":{"ha":732,"x_min":69,"x_max":663,"o":"m 69 972 l 663 972 l 663 0 l 69 0 l 69 972 m 108 944 l 365 515 l 624 944 l 108 944 m 349 486 l 99 903 l 99 68 l 349 486 m 367 457 l 110 29 l 624 29 l 367 457 m 383 486 l 635 65 l 635 906 l 383 486 z "},"ß":{"ha":732,"x_min":69,"x_max":663,"o":"m 69 972 l 663 972 l 663 0 l 69 0 l 69 972 m 108 944 l 365 515 l 624 944 l 108 944 m 349 486 l 99 903 l 99 68 l 349 486 m 367 457 l 110 29 l 624 29 l 367 457 m 383 486 l 635 65 l 635 906 l 383 486 z "},"æ":{"ha":732,"x_min":69,"x_max":663,"o":"m 69 972 l 663 972 l 663 0 l 69 0 l 69 972 m 108 944 l 365 515 l 624 944 l 108 944 m 349 486 l 99 903 l 99 68 l 349 486 m 367 457 l 110 29 l 624 29 l 367 457 m 383 486 l 635 65 l 635 906 l 383 486 z "},"ð":{"ha":732,"x_min":69,"x_max":663,"o":"m 69 972 l 663 972 l 663 0 l 69 0 l 69 972 m 108 944 l 365 515 l 624 944 l 108 944 m 349 486 l 99 903 l 99 68 l 349 486 m 367 457 l 110 29 l 624 29 l 367 457 m 383 486 l 635 65 l 635 906 l 383 486 z "},"÷":{"ha":732,"x_min":69,"x_max":663,"o":"m 69 972 l 663 972 l 663 0 l 69 0 l 69 972 m 108 944 l 365 515 l 624 944 l 108 944 m 349 486 l 99 903 l 99 68 l 349 486 m 367 457 l 110 29 l 624 29 l 367 457 m 383 486 l 635 65 l 635 906 l 383 486 z "},"þ":{"ha":732,"x_min":69,"x_max":663,"o":"m 69 972 l 663 972 l 663 0 l 69 0 l 69 972 m 108 944 l 365 515 l 624 944 l 108 944 m 349 486 l 99 903 l 99 68 l 349 486 m 367 457 l 110 29 l 624 29 l 367 457 m 383 486 l 635 65 l 635 906 l 383 486 z "},"‚":{"ha":732,"x_min":69,"x_max":663,"o":"m 69 972 l 663 972 l 663 0 l 69 0 l 69 972 m 108 944 l 365 515 l 624 944 l 108 944 m 349 486 l 99 903 l 99 68 l 349 486 m 367 457 l 110 29 l 624 29 l 367 457 m 383 486 l 635 65 l 635 906 l 383 486 z "},"‛":{"ha":732,"x_min":69,"x_max":663,"o":"m 69 972 l 663 972 l 663 0 l 69 0 l 69 972 m 108 944 l 365 515 l 624 944 l 108 944 m 349 486 l 99 903 l 99 68 l 349 486 m 367 457 l 110 29 l 624 29 l 367 457 m 383 486 l 635 65 l 635 906 l 383 486 z "},"\u0000":{"ha":0,"x_min":0,"x_max":0,"o":""},"\n":{"ha":0,"x_min":0,"x_max":0,"o":""},"\r":{"ha":0,"x_min":0,"x_max":0,"o":""}," ":{"ha":438,"x_min":0,"x_max":0,"o":""},"!":{"ha":393,"x_min":85,"x_max":292,"o":"m 251 250 q 203 218 233 222 q 146 232 172 214 q 114 282 119 250 q 106 406 107 317 q 109 608 106 494 q 113 744 113 721 q 111 794 113 753 q 110 863 110 835 q 114 922 110 890 q 126 968 118 954 q 174 1001 143 996 q 231 990 204 1007 q 264 938 257 972 q 272 813 271 900 q 269 611 272 725 q 267 472 267 497 q 268 423 267 464 q 269 355 269 382 q 265 296 269 328 q 251 250 261 264 m 288 113 q 275 47 292 75 q 231 10 258 19 q 174 1 203 0 q 121 23 144 1 q 92 81 97 44 q 103 148 86 119 q 147 186 119 176 q 205 194 175 196 q 258 169 235 192 q 288 113 282 147 z "},"\"":{"ha":503,"x_min":53,"x_max":442,"o":"m 167 960 q 251 936 243 993 q 224 806 258 879 q 132 700 182 696 q 76 764 94 703 q 94 907 53 844 q 167 960 121 946 m 349 960 q 433 936 425 993 q 406 806 440 879 q 314 700 364 696 q 260 764 276 703 q 278 907 236 844 q 349 960 303 946 z "},"“":{"ha":503,"x_min":53,"x_max":442,"o":"m 167 960 q 251 936 243 993 q 224 806 258 879 q 132 700 182 696 q 76 764 94 703 q 94 907 53 844 q 167 960 121 946 m 349 960 q 433 936 425 993 q 406 806 440 879 q 314 700 364 696 q 260 764 276 703 q 278 907 236 844 q 349 960 303 946 z "},"”":{"ha":503,"x_min":53,"x_max":442,"o":"m 167 960 q 251 936 243 993 q 224 806 258 879 q 132 700 182 696 q 76 764 94 703 q 94 907 53 844 q 167 960 121 946 m 349 960 q 433 936 425 993 q 406 806 440 879 q 314 700 364 696 q 260 764 276 703 q 278 907 236 844 q 349 960 303 946 z "},"#":{"ha":882,"x_min":18,"x_max":886,"o":"m 701 672 q 843 616 800 642 q 874 571 886 590 q 811 538 861 551 q 671 511 761 524 l 638 319 q 672 310 647 314 q 715 303 696 307 q 749 281 733 300 q 761 228 764 263 q 750 186 760 201 q 723 165 740 171 q 690 158 706 160 q 649 157 674 157 q 611 156 624 157 q 600 108 606 140 q 590 54 594 75 q 566 17 585 33 q 514 0 547 0 q 467 10 485 0 q 446 42 450 21 q 442 80 442 63 q 445 126 442 97 q 449 167 449 154 l 353 174 q 346 128 349 160 q 340 75 343 96 q 319 36 338 54 q 267 18 300 18 q 227 26 243 18 q 203 45 211 33 q 192 77 196 57 q 190 112 189 97 q 192 150 190 126 q 193 185 193 174 q 164 186 189 185 q 130 188 139 188 q 99 192 121 189 q 67 201 78 196 q 44 216 57 207 q 25 239 31 225 q 19 271 19 253 q 40 325 19 307 q 91 344 61 343 q 153 345 121 344 q 207 346 185 346 l 226 539 q 199 547 221 540 q 60 626 65 586 q 111 688 57 656 q 219 703 179 728 q 232 707 229 697 q 240 756 233 714 q 260 885 250 825 q 292 952 267 929 q 346 973 318 975 q 395 944 374 971 q 417 872 417 917 q 414 828 417 851 q 408 790 411 806 q 403 759 406 775 q 400 733 400 743 q 401 714 400 724 q 408 699 401 704 q 423 688 414 693 q 449 682 432 683 q 487 681 465 681 q 540 683 508 681 q 543 706 540 688 q 547 735 546 725 q 551 763 549 744 q 558 793 554 782 q 568 819 563 804 q 581 844 574 835 q 597 863 588 854 q 617 877 606 872 q 643 882 629 882 q 691 867 674 882 q 711 826 708 853 q 712 775 714 800 q 706 718 710 750 q 701 672 701 686 m 478 326 l 508 524 l 385 531 l 371 332 l 478 326 z "},"$":{"ha":654,"x_min":-8,"x_max":596,"o":"m 254 546 q 325 523 276 532 q 415 507 374 514 q 500 467 456 500 q 568 375 544 435 q 585 301 583 335 q 577 244 588 268 q 549 201 567 221 q 508 167 532 182 q 463 142 485 153 q 419 119 442 131 q 383 96 396 107 q 372 35 378 82 q 347 -42 365 -12 q 289 -76 329 -71 q 241 -75 260 -82 q 215 -56 222 -68 q 206 -23 207 -43 q 206 14 204 -3 q 212 53 208 31 q 215 83 215 75 q 194 90 214 85 q 149 103 174 96 q 94 123 124 111 q 42 150 65 135 q 6 183 19 165 q -3 225 -8 201 q 31 275 3 249 q 83 288 47 292 q 161 272 119 285 q 258 255 203 260 q 368 265 313 250 q 433 299 435 283 q 350 340 432 313 q 138 444 194 394 q 128 696 28 542 q 178 758 156 738 q 214 781 201 778 q 239 795 226 783 q 263 842 251 807 q 293 951 275 878 q 361 1046 310 1024 q 435 1019 410 1067 q 444 894 457 978 q 497 842 443 888 q 585 719 594 757 q 514 679 578 690 q 490 678 511 679 q 442 676 468 678 q 382 671 415 675 q 322 658 349 667 q 273 635 296 650 q 247 599 250 621 q 254 546 243 578 z "},"%":{"ha":474,"x_min":-33,"x_max":497,"o":"m 311 831 q 418 947 354 925 q 489 915 471 965 q 496 868 496 896 q 465 789 494 858 q 388 613 436 719 q 296 413 339 507 q 206 216 253 318 q 150 97 158 114 q 47 -18 108 7 q -25 11 -6 -39 q -32 60 -32 31 q 38 233 -31 79 q 206 603 106 386 q 311 831 307 819 m 210 968 q 260 967 238 976 q 294 938 283 958 q 306 894 304 918 q 294 850 308 871 q 254 821 281 829 q 202 822 226 813 q 167 851 178 831 q 154 894 157 871 q 166 939 151 918 q 210 968 181 960 m 338 89 q 328 36 342 58 q 294 6 315 14 q 249 1 272 -1 q 207 19 225 3 q 185 64 189 36 q 193 115 181 93 q 228 145 206 138 q 273 151 250 153 q 315 133 296 150 q 338 89 333 117 z "},"&":{"ha":849,"x_min":22,"x_max":793,"o":"m 775 94 q 733 26 792 21 q 618 75 685 31 q 549 73 603 85 q 435 41 496 61 q 301 8 374 21 q 181 4 228 -6 q 76 54 114 17 q 30 142 38 92 q 33 247 22 193 q 69 356 43 301 q 147 510 107 436 q 165 547 164 540 q 160 564 167 554 q 106 739 125 611 q 185 957 81 908 q 368 944 265 994 q 496 810 467 897 q 403 571 538 688 q 382 490 367 538 q 440 397 397 443 q 521 320 482 351 q 569 286 560 289 q 586 293 583 282 q 583 324 589 304 q 575 368 578 344 q 574 412 572 392 q 591 443 575 432 q 640 450 607 454 q 698 408 678 446 q 717 330 718 371 q 708 254 715 289 q 695 190 696 207 q 705 164 694 172 q 728 155 715 156 q 754 140 740 154 q 775 94 768 125 m 261 839 q 236 744 229 824 q 275 649 243 665 q 311 660 292 640 q 359 759 358 710 q 328 832 360 808 q 261 839 296 856 m 168 150 q 256 133 194 128 q 383 155 318 138 q 476 189 449 172 l 253 419 q 235 384 249 407 q 208 338 221 361 q 181 287 194 315 q 159 235 167 258 q 153 188 151 211 q 168 150 154 165 z "},"'":{"ha":249,"x_min":79,"x_max":286,"o":"m 251 806 q 160 700 210 696 q 104 764 122 703 q 122 907 81 844 q 194 960 149 946 q 278 936 269 993 q 251 806 286 879 z "},"‘":{"ha":249,"x_min":79,"x_max":286,"o":"m 251 806 q 160 700 210 696 q 104 764 122 703 q 122 907 81 844 q 194 960 149 946 q 278 936 269 993 q 251 806 286 879 z "},"’":{"ha":249,"x_min":79,"x_max":286,"o":"m 251 806 q 160 700 210 696 q 104 764 122 703 q 122 907 81 844 q 194 960 149 946 q 278 936 269 993 q 251 806 286 879 z "},"(":{"ha":489,"x_min":50,"x_max":426,"o":"m 321 1025 q 397 1003 367 1032 q 415 929 426 975 q 392 890 410 906 q 350 860 375 875 q 311 829 325 844 q 244 685 268 781 q 224 514 219 589 q 256 394 226 469 q 318 250 285 319 q 378 113 351 181 q 401 1 404 46 q 354 -53 397 -44 q 197 81 276 -68 q 79 490 104 253 q 158 926 50 782 q 321 1025 219 1007 z "},")":{"ha":458,"x_min":61,"x_max":442,"o":"m 72 929 q 91 1003 61 975 q 167 1025 121 1032 q 400 753 353 993 q 369 283 440 544 q 218 -19 310 64 q 133 -53 174 -61 q 87 1 90 -44 q 110 113 83 46 q 169 250 136 181 q 232 394 203 319 q 264 514 261 469 q 244 685 268 589 q 176 829 219 781 q 138 860 163 844 q 95 890 113 875 q 72 929 78 906 z "},"*":{"ha":438,"x_min":64,"x_max":481,"o":"m 326 821 q 351 838 332 824 q 390 863 371 851 q 428 883 408 875 q 461 883 447 890 q 478 851 475 876 q 455 806 479 829 q 393 760 431 783 q 346 726 356 736 q 376 699 351 715 q 414 663 400 682 q 419 621 428 644 q 402 597 414 603 q 377 596 390 590 q 351 610 364 601 q 326 629 339 618 q 306 643 313 640 q 302 617 304 636 q 297 590 300 599 q 285 571 294 581 q 260 560 276 561 q 224 574 233 558 q 215 612 214 590 q 214 633 215 633 q 175 610 196 618 q 136 611 154 603 q 118 647 118 619 q 133 681 118 667 q 169 709 147 696 q 200 732 192 722 q 154 774 192 746 q 90 828 117 801 q 71 881 64 856 q 94 909 78 906 q 131 900 110 913 q 172 872 153 888 q 211 838 192 856 q 236 818 231 821 q 241 858 239 828 q 246 910 243 889 q 260 950 249 931 q 289 972 271 969 q 321 963 310 974 q 333 933 332 953 q 333 894 335 913 q 328 852 332 875 q 326 821 325 829 z "},"+":{"ha":832,"x_min":54,"x_max":789,"o":"m 326 385 q 270 385 313 386 q 200 384 228 383 q 140 394 172 385 q 93 421 108 403 q 78 519 56 471 q 161 581 101 567 q 241 588 206 589 q 301 583 276 586 q 340 596 325 581 q 356 651 354 611 q 357 681 356 657 q 359 715 358 706 q 363 747 360 725 q 370 779 365 768 q 383 806 375 790 q 403 830 390 821 q 432 844 415 839 q 528 829 492 864 q 564 732 565 794 q 559 678 563 706 q 552 638 556 651 q 549 611 549 625 q 551 592 549 597 q 565 581 553 586 q 595 573 578 575 q 646 568 613 571 q 747 517 711 563 q 729 422 788 464 q 532 369 672 382 q 531 327 532 358 q 529 278 531 296 q 524 231 528 260 q 513 185 521 203 q 492 151 504 168 q 460 126 481 133 q 411 121 439 119 q 351 145 372 125 q 327 194 331 165 q 324 258 324 224 q 329 326 325 293 q 326 385 333 358 z "},",":{"ha":242,"x_min":-53,"x_max":153,"o":"m -18 92 q 74 197 24 201 q 129 133 111 194 q 110 -10 153 54 q 39 -62 85 -49 q -45 -38 -37 -96 q -18 92 -53 19 z "},"-":{"ha":656,"x_min":7,"x_max":667,"o":"m 494 596 q 622 560 576 607 q 628 465 665 514 q 290 375 560 376 q 175 378 236 375 q 49 425 89 383 q 26 512 8 467 q 103 574 43 557 q 291 585 135 582 q 494 596 447 589 z "},".":{"ha":272,"x_min":-28,"x_max":171,"o":"m 47 194 q 115 190 85 203 q 157 149 144 176 q 170 92 169 122 q 151 37 171 63 q 95 3 131 11 q 31 8 60 -6 q -11 49 1 22 q -25 104 -24 75 q -7 159 -26 133 q 47 194 13 185 z "},"/":{"ha":388,"x_min":-32,"x_max":417,"o":"m 297 950 q 406 876 417 1018 q 147 147 390 674 q 88 19 90 22 q -18 101 -31 -44 q 263 876 0 314 q 297 950 296 950 z "},":":{"ha":336,"x_min":49,"x_max":268,"o":"m 247 252 q 238 239 247 252 q 192 219 228 226 q 126 224 156 211 q 85 265 97 238 q 71 321 72 292 q 89 375 69 350 q 144 410 108 400 q 210 406 181 419 q 253 365 240 392 q 266 308 265 338 q 247 252 267 278 m 197 488 q 131 480 163 474 q 81 510 100 486 q 56 561 63 533 q 65 619 50 589 q 115 665 79 649 q 179 673 149 679 q 227 642 210 667 q 251 588 244 617 q 243 531 257 560 q 197 488 229 501 z "},";":{"ha":318,"x_min":53,"x_max":260,"o":"m 146 158 q 63 183 71 125 q 89 313 54 240 q 181 418 131 422 q 236 354 218 415 q 218 211 260 274 q 146 158 192 172 m 181 482 q 115 485 144 472 q 71 524 85 497 q 55 579 57 550 q 72 635 53 608 q 128 671 92 661 q 193 668 164 681 q 235 629 222 656 q 250 573 249 603 q 233 517 251 543 q 181 482 215 492 z "},"<":{"ha":564,"x_min":1,"x_max":556,"o":"m 219 428 q 330 376 233 415 q 454 318 426 336 q 494 247 494 290 q 456 185 493 203 q 356 197 419 168 q 288 227 331 211 q 208 256 246 243 q 128 286 169 269 q 59 322 86 303 q 17 365 32 342 q 10 417 1 388 q 56 479 19 446 q 129 560 75 497 q 229 672 183 622 q 330 760 275 721 q 421 793 385 800 q 342 550 554 769 q 275 483 318 526 q 219 428 231 440 z "},"=":{"ha":688,"x_min":56,"x_max":646,"o":"m 186 543 q 97 574 129 547 q 60 633 64 601 q 81 697 57 665 q 153 739 106 728 q 213 746 176 746 q 292 742 250 746 q 373 732 335 738 q 455 720 411 726 q 519 711 499 714 q 600 685 569 706 q 638 638 631 664 q 640 584 646 611 q 610 536 633 557 q 557 510 588 515 q 461 514 535 507 q 299 531 388 521 q 186 543 211 542 m 135 446 q 176 451 147 450 q 235 450 204 451 q 308 445 265 449 q 379 439 351 442 q 447 432 407 436 q 493 428 486 428 q 573 403 542 422 q 613 358 604 383 q 617 305 621 332 q 592 257 613 278 q 543 229 572 236 q 379 233 513 222 q 182 251 246 243 q 99 287 131 260 q 62 344 67 314 q 76 404 57 375 q 135 446 94 433 z "},">":{"ha":607,"x_min":47,"x_max":544,"o":"m 92 318 q 215 376 118 336 q 325 428 313 415 q 271 483 315 440 q 81 708 110 640 q 125 793 50 781 q 215 760 160 800 q 316 672 271 721 q 416 560 361 622 q 490 479 471 497 q 535 417 525 446 q 528 365 544 388 q 485 322 513 342 q 417 286 458 303 q 338 256 375 269 q 258 227 300 243 q 190 197 215 211 q 90 185 131 165 q 52 247 49 206 q 92 318 56 288 z "},"?":{"ha":621,"x_min":63,"x_max":628,"o":"m 76 794 q 75 866 64 832 q 113 926 86 900 q 174 969 140 953 q 243 992 208 986 q 412 983 332 1006 q 542 907 492 960 q 610 778 593 854 q 592 608 628 701 q 540 520 576 567 q 474 435 504 474 q 440 371 444 397 q 357 226 418 258 q 274 256 306 200 q 258 290 265 269 q 258 387 244 339 q 295 483 271 435 q 351 574 319 531 q 404 657 382 618 q 435 726 426 696 q 422 778 443 756 q 344 810 400 800 q 278 801 314 814 q 215 770 243 788 q 161 741 188 753 q 113 741 135 729 q 76 794 92 753 m 386 11 q 320 2 351 -4 q 271 33 289 8 q 245 85 253 57 q 251 142 238 113 q 299 188 265 171 q 366 197 335 203 q 415 167 397 192 q 440 113 433 142 q 432 56 446 85 q 386 11 418 26 z "},"@":{"ha":949,"x_min":38,"x_max":910,"o":"m 882 640 q 904 478 908 568 q 863 321 900 388 q 815 261 840 281 q 765 241 790 242 q 717 244 740 240 q 664 254 694 249 q 610 257 633 260 q 548 235 582 253 q 489 202 514 217 q 419 189 464 188 q 321 218 375 190 q 252 292 274 243 q 234 394 231 342 q 258 496 238 447 q 334 603 285 554 q 440 676 383 651 q 551 701 497 700 q 646 663 606 703 q 697 547 686 624 q 736 444 713 439 q 753 510 754 450 q 675 674 749 613 q 469 719 600 736 q 318 661 382 708 q 225 549 254 614 q 199 403 196 483 q 240 250 201 324 q 254 100 294 147 q 165 93 222 63 q 53 271 85 136 q 39 410 39 335 q 69 586 39 504 q 151 725 100 668 q 269 822 203 782 q 408 879 336 863 q 554 890 481 896 q 691 856 628 883 q 806 772 754 828 q 882 640 857 717 m 536 481 q 527 535 543 526 q 472 514 511 543 q 406 430 431 482 q 401 358 381 378 q 458 358 425 342 q 507 399 492 374 q 536 481 529 433 z "},"A":{"ha":819,"x_min":-53,"x_max":753,"o":"m 513 635 q 483 764 511 764 q 389 631 453 764 q 340 540 371 592 q 319 486 313 493 q 429 492 329 478 l 431 493 l 432 493 q 499 524 485 500 q 513 635 513 549 m 194 258 q 38 61 110 85 q -29 113 -14 44 q 42 429 -51 224 q 81 510 60 469 q 122 591 100 546 q 158 669 143 636 q 191 741 172 703 q 225 807 210 779 q 262 863 240 835 q 306 910 283 892 q 358 944 328 929 q 422 966 388 960 q 501 972 457 972 q 597 963 544 971 q 674 900 642 954 q 721 763 706 846 q 744 587 736 679 q 751 397 751 494 q 747 228 750 299 q 739 108 744 158 q 676 10 732 39 q 573 28 619 -19 q 522 183 526 75 q 510 256 519 232 q 484 286 500 281 q 440 287 468 292 q 379 273 411 282 q 297 258 347 264 q 194 258 246 253 z "},"À":{"ha":819,"x_min":-53,"x_max":753,"o":"m 513 635 q 483 764 511 764 q 389 631 453 764 q 340 540 371 592 q 319 486 313 493 q 429 492 329 478 l 431 493 l 432 493 q 499 524 485 500 q 513 635 513 549 m 194 258 q 38 61 110 85 q -29 113 -14 44 q 42 429 -51 224 q 81 510 60 469 q 122 591 100 546 q 158 669 143 636 q 191 741 172 703 q 225 807 210 779 q 262 863 240 835 q 306 910 283 892 q 358 944 328 929 q 422 966 388 960 q 501 972 457 972 q 597 963 544 971 q 674 900 642 954 q 721 763 706 846 q 744 587 736 679 q 751 397 751 494 q 747 228 750 299 q 739 108 744 158 q 676 10 732 39 q 573 28 619 -19 q 522 183 526 75 q 510 256 519 232 q 484 286 500 281 q 440 287 468 292 q 379 273 411 282 q 297 258 347 264 q 194 258 246 253 z "},"Á":{"ha":819,"x_min":-53,"x_max":753,"o":"m 513 635 q 483 764 511 764 q 389 631 453 764 q 340 540 371 592 q 319 486 313 493 q 429 492 329 478 l 431 493 l 432 493 q 499 524 485 500 q 513 635 513 549 m 194 258 q 38 61 110 85 q -29 113 -14 44 q 42 429 -51 224 q 81 510 60 469 q 122 591 100 546 q 158 669 143 636 q 191 741 172 703 q 225 807 210 779 q 262 863 240 835 q 306 910 283 892 q 358 944 328 929 q 422 966 388 960 q 501 972 457 972 q 597 963 544 971 q 674 900 642 954 q 721 763 706 846 q 744 587 736 679 q 751 397 751 494 q 747 228 750 299 q 739 108 744 158 q 676 10 732 39 q 573 28 619 -19 q 522 183 526 75 q 510 256 519 232 q 484 286 500 281 q 440 287 468 292 q 379 273 411 282 q 297 258 347 264 q 194 258 246 253 z "},"Â":{"ha":819,"x_min":-53,"x_max":753,"o":"m 513 635 q 483 764 511 764 q 389 631 453 764 q 340 540 371 592 q 319 486 313 493 q 429 492 329 478 l 431 493 l 432 493 q 499 524 485 500 q 513 635 513 549 m 194 258 q 38 61 110 85 q -29 113 -14 44 q 42 429 -51 224 q 81 510 60 469 q 122 591 100 546 q 158 669 143 636 q 191 741 172 703 q 225 807 210 779 q 262 863 240 835 q 306 910 283 892 q 358 944 328 929 q 422 966 388 960 q 501 972 457 972 q 597 963 544 971 q 674 900 642 954 q 721 763 706 846 q 744 587 736 679 q 751 397 751 494 q 747 228 750 299 q 739 108 744 158 q 676 10 732 39 q 573 28 619 -19 q 522 183 526 75 q 510 256 519 232 q 484 286 500 281 q 440 287 468 292 q 379 273 411 282 q 297 258 347 264 q 194 258 246 253 z "},"Ã":{"ha":819,"x_min":-53,"x_max":753,"o":"m 513 635 q 483 764 511 764 q 389 631 453 764 q 340 540 371 592 q 319 486 313 493 q 429 492 329 478 l 431 493 l 432 493 q 499 524 485 500 q 513 635 513 549 m 194 258 q 38 61 110 85 q -29 113 -14 44 q 42 429 -51 224 q 81 510 60 469 q 122 591 100 546 q 158 669 143 636 q 191 741 172 703 q 225 807 210 779 q 262 863 240 835 q 306 910 283 892 q 358 944 328 929 q 422 966 388 960 q 501 972 457 972 q 597 963 544 971 q 674 900 642 954 q 721 763 706 846 q 744 587 736 679 q 751 397 751 494 q 747 228 750 299 q 739 108 744 158 q 676 10 732 39 q 573 28 619 -19 q 522 183 526 75 q 510 256 519 232 q 484 286 500 281 q 440 287 468 292 q 379 273 411 282 q 297 258 347 264 q 194 258 246 253 z "},"Ä":{"ha":819,"x_min":-53,"x_max":753,"o":"m 513 635 q 483 764 511 764 q 389 631 453 764 q 340 540 371 592 q 319 486 313 493 q 429 492 329 478 l 431 493 l 432 493 q 499 524 485 500 q 513 635 513 549 m 194 258 q 38 61 110 85 q -29 113 -14 44 q 42 429 -51 224 q 81 510 60 469 q 122 591 100 546 q 158 669 143 636 q 191 741 172 703 q 225 807 210 779 q 262 863 240 835 q 306 910 283 892 q 358 944 328 929 q 422 966 388 960 q 501 972 457 972 q 597 963 544 971 q 674 900 642 954 q 721 763 706 846 q 744 587 736 679 q 751 397 751 494 q 747 228 750 299 q 739 108 744 158 q 676 10 732 39 q 573 28 619 -19 q 522 183 526 75 q 510 256 519 232 q 484 286 500 281 q 440 287 468 292 q 379 273 411 282 q 297 258 347 264 q 194 258 246 253 z "},"Å":{"ha":819,"x_min":-53,"x_max":753,"o":"m 513 635 q 483 764 511 764 q 389 631 453 764 q 340 540 371 592 q 319 486 313 493 q 429 492 329 478 l 431 493 l 432 493 q 499 524 485 500 q 513 635 513 549 m 194 258 q 38 61 110 85 q -29 113 -14 44 q 42 429 -51 224 q 81 510 60 469 q 122 591 100 546 q 158 669 143 636 q 191 741 172 703 q 225 807 210 779 q 262 863 240 835 q 306 910 283 892 q 358 944 328 929 q 422 966 388 960 q 501 972 457 972 q 597 963 544 971 q 674 900 642 954 q 721 763 706 846 q 744 587 736 679 q 751 397 751 494 q 747 228 750 299 q 739 108 744 158 q 676 10 732 39 q 573 28 619 -19 q 522 183 526 75 q 510 256 519 232 q 484 286 500 281 q 440 287 468 292 q 379 273 411 282 q 297 258 347 264 q 194 258 246 253 z "},"B":{"ha":729,"x_min":1,"x_max":686,"o":"m 233 381 q 225 297 231 353 q 217 213 219 240 q 446 269 365 199 q 481 363 501 317 q 338 404 457 418 q 233 381 292 399 m 264 601 q 401 658 324 614 q 486 747 478 701 q 374 776 418 772 q 306 759 331 779 q 272 701 281 739 q 264 601 263 664 m 315 964 q 425 972 371 972 q 524 954 479 971 q 603 913 568 938 q 658 851 639 889 q 681 771 678 814 q 665 673 685 728 q 603 561 646 618 q 607 528 597 554 q 633 468 617 503 q 663 390 649 433 q 678 301 678 347 q 663 210 679 254 q 597 122 647 165 q 464 49 547 79 q 106 39 210 -42 q 31 375 3 119 q 39 461 33 403 q 48 555 44 519 q 60 644 51 590 q 81 734 69 699 q 113 813 92 769 q 160 882 133 856 q 226 931 186 908 q 315 964 265 954 z "},"C":{"ha":647,"x_min":11,"x_max":669,"o":"m 257 217 q 350 286 269 219 q 529 385 481 396 q 574 276 575 375 q 524 153 572 218 q 405 44 475 88 q 274 0 335 1 q 131 40 189 -1 q 48 151 72 82 q 18 306 24 219 q 27 479 13 392 q 67 645 42 567 q 126 778 93 724 q 422 969 261 994 q 601 846 529 954 q 651 658 668 746 q 597 581 640 606 q 532 567 557 558 q 488 599 507 576 q 458 656 469 622 q 433 714 446 689 q 405 751 419 739 q 366 744 390 763 q 308 674 342 726 q 247 532 272 618 q 219 358 221 446 q 257 217 217 271 z "},"Ç":{"ha":647,"x_min":11,"x_max":669,"o":"m 257 217 q 350 286 269 219 q 529 385 481 396 q 574 276 575 375 q 524 153 572 218 q 405 44 475 88 q 274 0 335 1 q 131 40 189 -1 q 48 151 72 82 q 18 306 24 219 q 27 479 13 392 q 67 645 42 567 q 126 778 93 724 q 422 969 261 994 q 601 846 529 954 q 651 658 668 746 q 597 581 640 606 q 532 567 557 558 q 488 599 507 576 q 458 656 469 622 q 433 714 446 689 q 405 751 419 739 q 366 744 390 763 q 308 674 342 726 q 247 532 272 618 q 219 358 221 446 q 257 217 217 271 z "},"D":{"ha":785,"x_min":14,"x_max":804,"o":"m 389 325 q 539 502 490 396 q 542 683 588 608 q 360 740 497 758 q 316 712 333 736 q 290 648 299 688 q 278 572 282 608 q 271 490 274 536 q 265 426 268 444 q 258 376 263 406 q 250 331 253 346 q 246 298 247 317 q 247 273 244 279 q 254 260 249 267 q 269 258 260 254 q 296 268 279 261 q 335 290 313 275 q 389 325 357 304 m 321 958 q 635 900 497 1007 q 776 647 754 807 q 664 281 804 451 q 403 79 567 163 q 182 1 267 11 q 63 35 97 -8 q 22 165 28 79 q 35 374 15 251 q 45 474 40 417 q 53 571 50 532 q 64 658 57 610 q 81 740 71 707 q 109 810 90 774 q 155 872 128 846 q 224 920 182 897 q 321 958 265 943 z "},"E":{"ha":672,"x_min":33,"x_max":743,"o":"m 290 553 q 348 567 311 556 q 410 583 385 578 q 466 585 435 589 q 522 564 497 582 q 562 467 571 525 q 499 381 553 410 q 391 347 474 365 q 285 304 308 328 q 290 254 231 253 q 413 272 304 254 q 439 275 432 275 q 581 208 586 275 q 475 85 576 151 q 226 0 349 1 q 43 144 72 -3 q 36 240 33 186 q 43 421 40 304 q 46 513 44 483 q 51 594 47 543 q 60 671 54 646 q 75 735 65 696 q 100 794 85 775 q 137 843 115 814 q 187 887 158 872 q 253 919 215 901 q 338 948 290 938 q 443 967 385 958 q 683 926 601 989 q 713 828 742 882 q 640 769 694 793 q 547 744 596 750 q 464 740 497 738 q 397 739 431 743 q 343 720 364 735 q 308 665 322 706 q 290 553 294 624 z "},"È":{"ha":672,"x_min":33,"x_max":743,"o":"m 290 553 q 348 567 311 556 q 410 583 385 578 q 466 585 435 589 q 522 564 497 582 q 562 467 571 525 q 499 381 553 410 q 391 347 474 365 q 285 304 308 328 q 290 254 231 253 q 413 272 304 254 q 439 275 432 275 q 581 208 586 275 q 475 85 576 151 q 226 0 349 1 q 43 144 72 -3 q 36 240 33 186 q 43 421 40 304 q 46 513 44 483 q 51 594 47 543 q 60 671 54 646 q 75 735 65 696 q 100 794 85 775 q 137 843 115 814 q 187 887 158 872 q 253 919 215 901 q 338 948 290 938 q 443 967 385 958 q 683 926 601 989 q 713 828 742 882 q 640 769 694 793 q 547 744 596 750 q 464 740 497 738 q 397 739 431 743 q 343 720 364 735 q 308 665 322 706 q 290 553 294 624 z "},"É":{"ha":672,"x_min":33,"x_max":743,"o":"m 290 553 q 348 567 311 556 q 410 583 385 578 q 466 585 435 589 q 522 564 497 582 q 562 467 571 525 q 499 381 553 410 q 391 347 474 365 q 285 304 308 328 q 290 254 231 253 q 413 272 304 254 q 439 275 432 275 q 581 208 586 275 q 475 85 576 151 q 226 0 349 1 q 43 144 72 -3 q 36 240 33 186 q 43 421 40 304 q 46 513 44 483 q 51 594 47 543 q 60 671 54 646 q 75 735 65 696 q 100 794 85 775 q 137 843 115 814 q 187 887 158 872 q 253 919 215 901 q 338 948 290 938 q 443 967 385 958 q 683 926 601 989 q 713 828 742 882 q 640 769 694 793 q 547 744 596 750 q 464 740 497 738 q 397 739 431 743 q 343 720 364 735 q 308 665 322 706 q 290 553 294 624 z "},"Ê":{"ha":672,"x_min":33,"x_max":743,"o":"m 290 553 q 348 567 311 556 q 410 583 385 578 q 466 585 435 589 q 522 564 497 582 q 562 467 571 525 q 499 381 553 410 q 391 347 474 365 q 285 304 308 328 q 290 254 231 253 q 413 272 304 254 q 439 275 432 275 q 581 208 586 275 q 475 85 576 151 q 226 0 349 1 q 43 144 72 -3 q 36 240 33 186 q 43 421 40 304 q 46 513 44 483 q 51 594 47 543 q 60 671 54 646 q 75 735 65 696 q 100 794 85 775 q 137 843 115 814 q 187 887 158 872 q 253 919 215 901 q 338 948 290 938 q 443 967 385 958 q 683 926 601 989 q 713 828 742 882 q 640 769 694 793 q 547 744 596 750 q 464 740 497 738 q 397 739 431 743 q 343 720 364 735 q 308 665 322 706 q 290 553 294 624 z "},"Ë":{"ha":672,"x_min":33,"x_max":743,"o":"m 290 553 q 348 567 311 556 q 410 583 385 578 q 466 585 435 589 q 522 564 497 582 q 562 467 571 525 q 499 381 553 410 q 391 347 474 365 q 285 304 308 328 q 290 254 231 253 q 413 272 304 254 q 439 275 432 275 q 581 208 586 275 q 475 85 576 151 q 226 0 349 1 q 43 144 72 -3 q 36 240 33 186 q 43 421 40 304 q 46 513 44 483 q 51 594 47 543 q 60 671 54 646 q 75 735 65 696 q 100 794 85 775 q 137 843 115 814 q 187 887 158 872 q 253 919 215 901 q 338 948 290 938 q 443 967 385 958 q 683 926 601 989 q 713 828 742 882 q 640 769 694 793 q 547 744 596 750 q 464 740 497 738 q 397 739 431 743 q 343 720 364 735 q 308 665 322 706 q 290 553 294 624 z "},"F":{"ha":632,"x_min":6,"x_max":690,"o":"m 285 546 q 476 549 429 554 q 556 390 643 528 q 490 340 531 353 q 410 329 450 326 q 333 331 371 332 q 270 306 296 331 q 240 222 244 281 q 172 42 231 113 q 54 22 111 -33 q 21 69 36 39 q 8 127 11 88 q 12 226 6 167 q 22 322 18 285 q 37 425 26 360 q 47 492 47 490 q 107 794 79 721 q 254 949 150 911 q 538 968 350 982 q 640 933 601 963 q 685 869 679 904 q 660 800 690 835 q 569 751 631 765 q 435 736 486 732 q 353 734 383 740 q 309 689 324 728 q 285 546 294 650 z "},"G":{"ha":699,"x_min":-12,"x_max":694,"o":"m 400 296 q 243 426 239 367 q 338 492 244 472 q 551 476 451 515 q 651 317 675 428 q 510 108 632 228 q 211 18 351 -46 q 50 226 101 68 q 51 621 -11 417 q 68 667 58 644 q 339 965 168 924 q 575 907 464 996 q 685 731 669 833 q 663 615 693 667 q 610 559 635 568 q 565 570 585 550 q 524 624 544 590 q 483 690 504 657 q 439 745 461 724 q 386 760 417 767 q 321 708 356 753 q 242 557 271 643 q 218 377 213 471 q 275 219 224 283 q 287 212 279 213 q 304 217 294 211 q 324 230 314 222 q 347 247 335 238 q 367 266 358 257 q 385 284 376 275 q 400 296 394 293 z "},"H":{"ha":790,"x_min":-8,"x_max":797,"o":"m 292 521 q 424 525 378 522 q 498 538 469 528 q 533 563 526 549 q 543 605 539 576 q 546 665 547 633 q 555 749 544 696 q 589 860 565 803 q 692 972 635 974 q 767 888 740 971 q 769 642 797 788 q 731 410 768 633 q 668 99 694 188 q 619 26 654 53 q 544 4 585 0 q 474 44 503 8 q 449 115 450 72 q 463 224 449 158 q 478 306 476 289 l 247 290 q 125 32 207 114 q 26 15 64 -28 q 0 174 -7 56 q 15 301 3 228 q 47 463 28 374 q 67 558 65 553 q 76 623 69 574 q 90 712 83 672 q 110 803 97 751 q 140 890 124 856 q 182 949 156 925 q 242 971 208 972 q 310 929 289 968 q 331 831 332 890 q 320 714 329 772 q 301 599 311 656 q 292 521 290 542 z "},"I":{"ha":356,"x_min":-17,"x_max":361,"o":"m 156 856 q 229 960 190 931 q 300 960 268 990 q 342 840 332 929 q 306 431 361 685 q 178 58 250 176 q 81 1 132 -15 q 11 100 29 18 q 34 462 -15 228 q 156 856 83 696 z "},"Ì":{"ha":356,"x_min":-17,"x_max":361,"o":"m 156 856 q 229 960 190 931 q 300 960 268 990 q 342 840 332 929 q 306 431 361 685 q 178 58 250 176 q 81 1 132 -15 q 11 100 29 18 q 34 462 -15 228 q 156 856 83 696 z "},"Í":{"ha":356,"x_min":-17,"x_max":361,"o":"m 156 856 q 229 960 190 931 q 300 960 268 990 q 342 840 332 929 q 306 431 361 685 q 178 58 250 176 q 81 1 132 -15 q 11 100 29 18 q 34 462 -15 228 q 156 856 83 696 z "},"Î":{"ha":356,"x_min":-17,"x_max":361,"o":"m 156 856 q 229 960 190 931 q 300 960 268 990 q 342 840 332 929 q 306 431 361 685 q 178 58 250 176 q 81 1 132 -15 q 11 100 29 18 q 34 462 -15 228 q 156 856 83 696 z "},"Ï":{"ha":356,"x_min":-17,"x_max":361,"o":"m 156 856 q 229 960 190 931 q 300 960 268 990 q 342 840 332 929 q 306 431 361 685 q 178 58 250 176 q 81 1 132 -15 q 11 100 29 18 q 34 462 -15 228 q 156 856 83 696 z "},"J":{"ha":681,"x_min":-26,"x_max":693,"o":"m 567 960 q 686 842 681 1013 q 586 283 692 681 q 583 275 585 278 q 489 92 554 163 q 346 6 424 22 q 185 24 268 -11 q 38 143 101 58 q -4 224 13 176 q -24 320 -21 272 q -1 404 -26 368 q 79 446 25 440 q 144 431 117 450 q 184 383 171 413 q 211 320 197 353 q 236 265 225 288 q 270 235 247 242 q 325 251 293 228 q 366 339 347 267 q 400 505 385 411 q 435 694 415 599 q 488 865 454 790 q 567 960 521 940 z "},"K":{"ha":729,"x_min":25,"x_max":740,"o":"m 454 519 q 499 438 456 513 q 590 270 543 364 q 651 114 636 176 q 647 28 664 58 q 597 -3 629 -1 q 527 14 564 -4 q 468 65 490 32 q 402 188 442 103 q 354 286 363 272 q 265 333 285 408 q 250 178 260 313 q 240 100 246 126 q 192 24 228 49 q 121 2 157 -1 q 56 40 85 6 q 26 129 28 74 q 31 231 26 167 q 41 347 36 296 q 54 476 46 399 q 65 575 63 554 q 71 644 67 589 q 79 733 75 699 q 92 814 83 767 q 118 895 101 861 q 158 949 135 929 q 294 794 269 1039 q 300 728 297 769 q 304 688 301 692 q 686 969 574 947 q 735 929 740 981 q 550 628 726 835 q 454 519 506 575 z "},"L":{"ha":639,"x_min":-14,"x_max":615,"o":"m 226 228 q 563 161 481 232 q 563 71 615 117 q 304 1 493 10 q 201 1 247 -1 q 122 13 156 3 q 62 31 88 22 q 22 61 36 39 q -3 99 7 83 q -13 148 -12 114 q -13 203 -14 182 q -3 271 -12 225 q 14 344 7 317 q 35 428 21 371 q 43 461 40 450 q 196 896 125 778 q 258 963 226 946 q 314 964 290 979 q 351 913 338 949 q 363 832 365 878 q 329 635 358 758 q 267 389 300 511 q 226 228 233 267 z "},"M":{"ha":1136,"x_min":33,"x_max":1160,"o":"m 544 658 q 572 701 558 667 q 603 776 586 735 q 644 860 619 818 q 718 934 669 903 q 832 971 767 965 q 956 962 894 976 q 1066 916 1018 947 q 1136 830 1114 885 q 1142 706 1158 775 q 1068 434 1119 621 q 1001 190 1017 247 q 888 11 964 49 q 793 36 829 -18 q 768 175 760 83 q 810 363 774 225 q 879 611 846 500 q 889 756 917 735 q 815 688 865 774 q 776 610 796 654 q 699 407 722 486 q 558 144 638 204 q 474 120 514 113 q 405 161 435 128 q 361 240 375 194 q 328 463 342 308 q 307 653 315 618 q 276 534 286 626 q 258 323 267 442 q 235 144 250 204 q 197 52 222 90 q 142 3 171 14 q 88 26 114 -8 q 49 142 61 60 q 36 310 38 214 q 39 417 35 406 q 47 512 39 422 q 64 668 54 601 q 92 789 74 735 q 149 897 111 850 q 233 963 188 943 q 330 969 278 983 q 425 901 382 956 q 495 768 458 858 q 544 658 532 678 z "},"N":{"ha":868,"x_min":-1,"x_max":878,"o":"m 288 456 q 276 454 281 472 q 263 351 275 443 q 233 181 251 260 q 189 56 215 103 q 120 0 160 6 q 50 26 81 -6 q 10 108 19 57 q 9 269 0 171 q 40 486 18 367 q 64 617 63 606 q 153 858 81 740 q 322 971 239 999 q 431 833 383 950 q 502 569 463 757 q 547 361 542 381 q 585 492 567 389 q 627 715 604 596 q 678 889 650 833 q 728 948 696 925 q 791 973 760 971 q 847 947 822 975 q 874 864 871 919 q 868 753 876 821 q 849 635 860 686 q 826 524 839 583 q 811 460 813 465 q 800 393 807 438 q 788 317 793 349 q 771 240 782 285 q 748 163 760 194 q 717 97 736 131 q 674 42 697 63 q 617 11 650 22 q 543 4 583 0 q 437 52 482 10 q 367 156 392 94 q 327 276 342 217 q 303 389 313 335 q 288 456 293 443 z "},"Ñ":{"ha":868,"x_min":-1,"x_max":878,"o":"m 288 456 q 276 454 281 472 q 263 351 275 443 q 233 181 251 260 q 189 56 215 103 q 120 0 160 6 q 50 26 81 -6 q 10 108 19 57 q 9 269 0 171 q 40 486 18 367 q 64 617 63 606 q 153 858 81 740 q 322 971 239 999 q 431 833 383 950 q 502 569 463 757 q 547 361 542 381 q 585 492 567 389 q 627 715 604 596 q 678 889 650 833 q 728 948 696 925 q 791 973 760 971 q 847 947 822 975 q 874 864 871 919 q 868 753 876 821 q 849 635 860 686 q 826 524 839 583 q 811 460 813 465 q 800 393 807 438 q 788 317 793 349 q 771 240 782 285 q 748 163 760 194 q 717 97 736 131 q 674 42 697 63 q 617 11 650 22 q 543 4 583 0 q 437 52 482 10 q 367 156 392 94 q 327 276 342 217 q 303 389 313 335 q 288 456 293 443 z "},"O":{"ha":688,"x_min":10,"x_max":678,"o":"m 260 517 q 278 275 233 356 q 349 254 308 218 q 428 456 400 297 q 411 699 456 617 q 338 722 379 756 q 260 517 285 679 m 329 967 q 594 836 504 1000 q 657 469 676 690 q 526 110 638 243 q 360 6 454 25 q 93 136 185 -29 q 31 504 11 282 q 161 863 50 729 q 329 967 233 949 z "},"Ò":{"ha":688,"x_min":10,"x_max":678,"o":"m 260 517 q 278 275 233 356 q 349 254 308 218 q 428 456 400 297 q 411 699 456 617 q 338 722 379 756 q 260 517 285 679 m 329 967 q 594 836 504 1000 q 657 469 676 690 q 526 110 638 243 q 360 6 454 25 q 93 136 185 -29 q 31 504 11 282 q 161 863 50 729 q 329 967 233 949 z "},"Ó":{"ha":688,"x_min":10,"x_max":678,"o":"m 260 517 q 278 275 233 356 q 349 254 308 218 q 428 456 400 297 q 411 699 456 617 q 338 722 379 756 q 260 517 285 679 m 329 967 q 594 836 504 1000 q 657 469 676 690 q 526 110 638 243 q 360 6 454 25 q 93 136 185 -29 q 31 504 11 282 q 161 863 50 729 q 329 967 233 949 z "},"Ô":{"ha":688,"x_min":10,"x_max":678,"o":"m 260 517 q 278 275 233 356 q 349 254 308 218 q 428 456 400 297 q 411 699 456 617 q 338 722 379 756 q 260 517 285 679 m 329 967 q 594 836 504 1000 q 657 469 676 690 q 526 110 638 243 q 360 6 454 25 q 93 136 185 -29 q 31 504 11 282 q 161 863 50 729 q 329 967 233 949 z "},"Õ":{"ha":688,"x_min":10,"x_max":678,"o":"m 260 517 q 278 275 233 356 q 349 254 308 218 q 428 456 400 297 q 411 699 456 617 q 338 722 379 756 q 260 517 285 679 m 329 967 q 594 836 504 1000 q 657 469 676 690 q 526 110 638 243 q 360 6 454 25 q 93 136 185 -29 q 31 504 11 282 q 161 863 50 729 q 329 967 233 949 z "},"Ö":{"ha":688,"x_min":10,"x_max":678,"o":"m 260 517 q 278 275 233 356 q 349 254 308 218 q 428 456 400 297 q 411 699 456 617 q 338 722 379 756 q 260 517 285 679 m 329 967 q 594 836 504 1000 q 657 469 676 690 q 526 110 638 243 q 360 6 454 25 q 93 136 185 -29 q 31 504 11 282 q 161 863 50 729 q 329 967 233 949 z "},"Ø":{"ha":688,"x_min":10,"x_max":678,"o":"m 260 517 q 278 275 233 356 q 349 254 308 218 q 428 456 400 297 q 411 699 456 617 q 338 722 379 756 q 260 517 285 679 m 329 967 q 594 836 504 1000 q 657 469 676 690 q 526 110 638 243 q 360 6 454 25 q 93 136 185 -29 q 31 504 11 282 q 161 863 50 729 q 329 967 233 949 z "},"P":{"ha":726,"x_min":3,"x_max":747,"o":"m 313 731 q 288 638 299 721 q 282 528 278 556 q 359 529 317 519 q 435 561 401 539 q 494 612 468 583 q 521 669 519 640 q 501 724 522 699 q 406 749 472 749 q 313 731 340 749 m 358 968 q 506 963 435 979 q 628 908 576 946 q 714 815 681 871 q 747 692 747 760 q 715 547 747 625 q 640 431 683 478 q 553 365 596 385 q 466 333 511 344 q 382 316 421 322 q 312 298 343 310 q 260 258 281 286 q 236 181 239 229 q 168 21 226 72 q 76 25 117 -25 q 42 435 3 114 q 50 517 46 468 q 57 599 54 567 q 66 675 60 632 q 81 747 72 718 q 105 810 90 776 q 141 867 119 844 q 192 912 163 890 q 264 947 222 933 q 358 968 306 961 z "},"Q":{"ha":779,"x_min":28,"x_max":731,"o":"m 363 289 q 475 469 449 321 q 461 704 500 601 q 357 772 425 801 q 351 771 354 772 q 236 576 263 725 q 254 350 213 443 q 363 289 293 264 m 349 968 q 472 960 415 979 q 565 901 529 942 q 630 803 601 860 q 669 685 658 747 q 683 560 679 622 q 674 447 686 499 q 646 356 664 397 q 616 297 628 314 q 601 259 604 279 q 614 220 597 239 q 672 171 631 201 q 707 69 729 131 q 631 3 688 17 q 510 36 569 -11 q 421 81 472 65 q 325 99 369 97 q 232 115 281 101 q 147 155 183 129 q 80 244 110 181 q 36 407 50 308 q 32 549 29 478 q 59 690 35 619 q 120 817 83 760 q 216 914 157 874 q 349 968 275 954 z "},"R":{"ha":769,"x_min":13,"x_max":710,"o":"m 289 717 q 272 597 281 699 q 267 478 263 496 q 349 504 297 476 q 442 572 400 532 q 501 658 485 613 q 476 738 518 704 q 373 756 443 764 q 289 717 303 747 m 319 961 q 447 971 386 975 q 556 940 508 967 q 638 878 603 914 q 690 791 674 842 q 708 686 707 740 q 688 571 710 632 q 622 451 665 510 q 613 392 601 431 q 645 323 624 354 q 685 240 667 292 q 700 142 704 189 q 683 65 697 99 q 650 13 669 31 q 601 8 631 -4 q 542 67 572 21 q 516 112 529 86 q 494 156 503 138 q 476 195 486 174 q 465 219 467 217 q 333 261 413 315 q 214 85 253 207 q 136 1 190 13 q 46 53 81 -10 q 26 219 14 114 q 34 328 31 264 q 40 444 38 393 q 48 558 42 496 q 64 669 54 621 q 94 769 74 718 q 142 856 114 819 q 216 920 171 892 q 319 961 261 949 z "},"S":{"ha":708,"x_min":-32,"x_max":669,"o":"m 435 261 q 379 297 415 282 q 305 322 343 313 q 223 344 267 331 q 145 374 179 357 q 83 424 111 392 q 49 501 56 456 q 54 618 43 547 q 102 749 68 683 q 185 867 136 814 q 302 950 235 921 q 442 968 369 979 q 610 844 551 953 q 650 630 668 735 q 553 519 632 525 q 486 535 511 517 q 453 585 461 554 q 442 647 446 615 q 428 706 438 679 q 401 739 419 732 q 341 713 376 747 q 283 630 306 679 q 268 554 261 581 q 342 524 296 536 q 432 501 389 511 q 519 474 475 492 q 598 419 564 457 q 647 321 632 381 q 650 215 664 263 q 605 129 636 167 q 526 65 574 92 q 430 22 479 38 q 329 1 381 7 q 202 7 271 -6 q 74 51 133 19 q -8 132 15 82 q 1 250 -31 182 q 42 307 22 292 q 82 315 63 322 q 123 292 101 308 q 174 257 144 275 q 239 228 204 239 q 325 224 274 217 q 435 261 376 231 z "},"T":{"ha":806,"x_min":42,"x_max":874,"o":"m 365 747 q 51 878 43 813 q 256 957 60 929 q 524 971 382 974 q 575 972 539 971 q 640 972 611 972 q 706 969 668 972 q 771 959 743 967 q 824 938 799 951 q 861 901 849 925 q 871 846 874 878 q 838 766 868 789 q 767 745 808 743 q 685 750 726 747 q 612 735 644 753 q 572 667 579 717 q 561 597 567 628 q 544 500 556 567 q 519 381 532 433 q 488 263 506 329 q 447 149 469 196 q 400 62 425 101 q 344 8 375 22 q 281 6 314 -7 q 221 101 229 26 q 236 275 213 176 q 291 470 260 374 q 347 646 322 567 q 365 747 371 725 z "},"U":{"ha":806,"x_min":31,"x_max":836,"o":"m 651 964 q 814 844 790 1007 q 751 439 836 688 q 586 128 676 219 q 423 15 503 43 q 281 9 343 -14 q 168 90 219 32 q 86 228 117 147 q 44 405 56 310 q 42 593 32 500 q 51 648 44 617 q 69 720 57 679 q 95 799 81 761 q 130 874 110 838 q 174 931 150 910 q 227 961 197 953 q 290 951 257 969 q 326 867 322 935 q 315 722 329 799 q 286 556 300 646 q 275 422 272 465 q 354 257 286 250 q 478 378 410 264 q 521 465 503 421 q 552 605 540 517 q 568 763 564 693 q 592 892 572 833 q 651 964 613 951 z "},"Ù":{"ha":806,"x_min":31,"x_max":836,"o":"m 651 964 q 814 844 790 1007 q 751 439 836 688 q 586 128 676 219 q 423 15 503 43 q 281 9 343 -14 q 168 90 219 32 q 86 228 117 147 q 44 405 56 310 q 42 593 32 500 q 51 648 44 617 q 69 720 57 679 q 95 799 81 761 q 130 874 110 838 q 174 931 150 910 q 227 961 197 953 q 290 951 257 969 q 326 867 322 935 q 315 722 329 799 q 286 556 300 646 q 275 422 272 465 q 354 257 286 250 q 478 378 410 264 q 521 465 503 421 q 552 605 540 517 q 568 763 564 693 q 592 892 572 833 q 651 964 613 951 z "},"Ú":{"ha":806,"x_min":31,"x_max":836,"o":"m 651 964 q 814 844 790 1007 q 751 439 836 688 q 586 128 676 219 q 423 15 503 43 q 281 9 343 -14 q 168 90 219 32 q 86 228 117 147 q 44 405 56 310 q 42 593 32 500 q 51 648 44 617 q 69 720 57 679 q 95 799 81 761 q 130 874 110 838 q 174 931 150 910 q 227 961 197 953 q 290 951 257 969 q 326 867 322 935 q 315 722 329 799 q 286 556 300 646 q 275 422 272 465 q 354 257 286 250 q 478 378 410 264 q 521 465 503 421 q 552 605 540 517 q 568 763 564 693 q 592 892 572 833 q 651 964 613 951 z "},"Û":{"ha":806,"x_min":31,"x_max":836,"o":"m 651 964 q 814 844 790 1007 q 751 439 836 688 q 586 128 676 219 q 423 15 503 43 q 281 9 343 -14 q 168 90 219 32 q 86 228 117 147 q 44 405 56 310 q 42 593 32 500 q 51 648 44 617 q 69 720 57 679 q 95 799 81 761 q 130 874 110 838 q 174 931 150 910 q 227 961 197 953 q 290 951 257 969 q 326 867 322 935 q 315 722 329 799 q 286 556 300 646 q 275 422 272 465 q 354 257 286 250 q 478 378 410 264 q 521 465 503 421 q 552 605 540 517 q 568 763 564 693 q 592 892 572 833 q 651 964 613 951 z "},"Ü":{"ha":806,"x_min":31,"x_max":836,"o":"m 651 964 q 814 844 790 1007 q 751 439 836 688 q 586 128 676 219 q 423 15 503 43 q 281 9 343 -14 q 168 90 219 32 q 86 228 117 147 q 44 405 56 310 q 42 593 32 500 q 51 648 44 617 q 69 720 57 679 q 95 799 81 761 q 130 874 110 838 q 174 931 150 910 q 227 961 197 953 q 290 951 257 969 q 326 867 322 935 q 315 722 329 799 q 286 556 300 646 q 275 422 272 465 q 354 257 286 250 q 478 378 410 264 q 521 465 503 421 q 552 605 540 517 q 568 763 564 693 q 592 892 572 833 q 651 964 613 951 z "},"V":{"ha":854,"x_min":51,"x_max":933,"o":"m 93 886 q 140 960 110 939 q 201 967 169 982 q 257 904 233 951 q 273 866 265 888 q 285 819 281 844 q 294 769 290 793 q 300 713 297 746 q 304 658 303 681 q 306 598 306 635 q 308 541 307 561 q 308 483 308 521 q 310 418 310 439 q 311 361 310 397 q 315 311 313 325 q 322 276 318 297 q 332 252 326 254 q 347 248 338 250 q 367 261 356 246 q 394 298 379 276 q 429 357 410 319 q 472 444 449 394 q 557 627 479 458 q 678 878 635 796 q 786 969 715 951 q 888 933 856 985 q 856 708 933 860 q 801 585 829 656 q 751 458 772 515 q 703 335 731 400 q 651 221 676 271 q 588 124 625 171 q 510 50 551 78 q 414 9 469 22 q 292 3 358 -4 q 165 84 218 11 q 90 262 113 157 q 60 485 67 367 q 63 710 53 604 q 93 886 72 815 z "},"W":{"ha":1039,"x_min":67,"x_max":1092,"o":"m 692 381 q 893 910 800 742 q 968 971 919 960 q 1053 950 1017 982 q 1086 858 1090 918 q 1067 785 1085 833 q 1021 675 1049 736 q 986 596 993 614 q 931 437 975 565 q 849 206 888 308 q 783 72 810 103 q 662 2 736 13 q 528 39 588 -8 q 481 115 494 65 q 472 206 468 164 q 476 286 475 249 q 472 328 476 324 q 236 33 342 26 q 103 242 149 39 q 72 525 75 364 q 70 563 72 528 q 67 635 68 599 q 67 716 67 671 q 72 805 68 761 q 82 879 75 849 q 116 952 93 929 q 163 970 139 975 q 211 941 188 965 q 247 879 235 917 q 276 629 272 811 q 285 422 281 447 q 378 672 294 494 q 511 863 461 850 q 597 851 564 875 q 642 780 629 826 q 661 672 654 733 q 667 555 668 611 q 672 449 667 499 q 692 381 678 400 z "},"X":{"ha":746,"x_min":-56,"x_max":794,"o":"m 156 96 q -15 15 33 -26 q -19 163 -56 50 q 157 429 28 307 q 195 510 193 464 q 178 596 197 556 q 131 697 158 636 q 96 800 104 757 q 113 951 75 907 q 214 960 151 994 q 319 831 276 925 q 349 767 331 807 q 368 722 363 735 q 384 698 374 710 q 398 685 394 686 q 415 692 401 685 q 437 710 428 700 q 469 746 446 721 q 553 836 517 800 q 739 913 661 946 q 792 822 790 890 q 768 736 793 778 q 633 594 736 688 q 500 458 529 501 q 493 396 485 435 q 524 317 501 357 q 565 229 546 276 q 590 141 585 182 q 572 58 596 100 q 536 16 554 31 q 500 2 518 1 q 467 8 482 3 q 435 33 451 14 q 406 68 418 53 q 379 112 394 83 q 356 156 364 140 q 336 197 349 171 q 297 250 311 250 q 251 206 283 250 q 156 96 201 140 z "},"Y":{"ha":732,"x_min":44,"x_max":807,"o":"m 781 949 q 793 858 806 914 q 747 747 781 801 q 665 625 714 693 q 572 497 617 557 q 492 370 528 438 q 446 250 456 303 q 400 107 436 186 q 348 28 375 54 q 297 3 321 1 q 254 22 274 4 q 224 72 235 39 q 213 144 213 106 q 223 228 213 178 q 243 318 233 278 q 253 408 253 358 q 236 494 253 457 q 151 649 226 515 q 67 828 75 782 q 104 968 46 944 q 228 921 157 989 q 285 849 258 892 q 320 785 303 819 q 347 728 338 750 q 367 686 356 707 q 387 659 378 665 q 409 655 396 653 q 439 674 422 657 q 479 724 456 690 q 506 762 485 731 q 544 815 528 793 q 587 868 561 836 q 635 919 613 900 q 684 953 658 938 q 734 968 710 969 q 781 949 758 967 z "},"Ý":{"ha":732,"x_min":44,"x_max":807,"o":"m 781 949 q 793 858 806 914 q 747 747 781 801 q 665 625 714 693 q 572 497 617 557 q 492 370 528 438 q 446 250 456 303 q 400 107 436 186 q 348 28 375 54 q 297 3 321 1 q 254 22 274 4 q 224 72 235 39 q 213 144 213 106 q 223 228 213 178 q 243 318 233 278 q 253 408 253 358 q 236 494 253 457 q 151 649 226 515 q 67 828 75 782 q 104 968 46 944 q 228 921 157 989 q 285 849 258 892 q 320 785 303 819 q 347 728 338 750 q 367 686 356 707 q 387 659 378 665 q 409 655 396 653 q 439 674 422 657 q 479 724 456 690 q 506 762 485 731 q 544 815 528 793 q 587 868 561 836 q 635 919 613 900 q 684 953 658 938 q 734 968 710 969 q 781 949 758 967 z "},"Ÿ":{"ha":732,"x_min":44,"x_max":807,"o":"m 781 949 q 793 858 806 914 q 747 747 781 801 q 665 625 714 693 q 572 497 617 557 q 492 370 528 438 q 446 250 456 303 q 400 107 436 186 q 348 28 375 54 q 297 3 321 1 q 254 22 274 4 q 224 72 235 39 q 213 144 213 106 q 223 228 213 178 q 243 318 233 278 q 253 408 253 358 q 236 494 253 457 q 151 649 226 515 q 67 828 75 782 q 104 968 46 944 q 228 921 157 989 q 285 849 258 892 q 320 785 303 819 q 347 728 338 750 q 367 686 356 707 q 387 659 378 665 q 409 655 396 653 q 439 674 422 657 q 479 724 456 690 q 506 762 485 731 q 544 815 528 793 q 587 868 561 836 q 635 919 613 900 q 684 953 658 938 q 734 968 710 969 q 781 949 758 967 z "},"Z":{"ha":700,"x_min":-35,"x_max":725,"o":"m 454 740 q 68 772 97 699 q 154 878 51 817 q 435 969 282 954 q 607 949 540 981 q 700 867 675 917 q 708 762 725 818 q 653 646 690 706 q 561 525 617 586 q 456 414 506 464 q 359 317 406 364 q 297 249 313 271 q 633 175 626 251 q 524 76 639 129 q 210 0 375 7 q 1 56 61 -6 q -31 127 -29 86 q -12 212 -33 168 q 46 305 8 256 q 129 401 83 354 q 226 498 175 449 q 321 589 276 547 q 402 672 365 631 q 454 740 439 713 z "},"[":{"ha":526,"x_min":92,"x_max":478,"o":"m 336 1024 q 443 978 408 1024 q 428 897 476 933 q 313 860 390 871 q 285 828 294 857 q 273 751 275 799 q 271 660 271 704 q 273 569 271 617 q 275 506 275 521 q 267 392 275 496 q 261 216 258 288 q 283 128 264 144 q 317 117 294 118 q 362 119 340 117 q 407 114 383 121 q 443 85 431 107 q 448 8 467 44 q 382 -40 429 -29 q 283 -53 326 -53 q 208 -47 239 -54 q 156 -19 178 -39 q 121 23 133 0 q 101 80 108 46 q 93 147 94 114 q 94 223 92 179 q 99 303 96 267 q 105 387 101 339 q 110 469 108 435 q 113 598 110 481 q 116 731 117 715 q 114 857 115 746 q 115 942 111 910 q 131 992 119 974 q 160 1018 142 1011 q 206 1026 179 1025 q 269 1025 233 1028 q 336 1024 311 1024 z "},"\\":{"ha":564,"x_min":31,"x_max":561,"o":"m 389 19 q 283 244 381 24 q 75 943 31 818 q 178 950 96 997 l 292 703 q 475 10 561 85 q 389 19 450 -14 z "},"]":{"ha":531,"x_min":58,"x_max":433,"o":"m 214 860 q 71 936 81 878 q 115 1006 63 978 q 189 1024 149 1024 q 256 1025 214 1024 q 319 1026 292 1028 q 365 1018 346 1025 q 394 992 383 1011 q 410 942 406 974 q 411 857 414 910 q 409 731 410 746 q 412 598 408 715 q 417 469 415 481 q 420 387 417 435 q 427 303 424 339 q 432 223 431 267 q 432 147 433 179 q 424 80 431 114 q 404 23 417 46 q 370 -19 392 0 q 317 -47 349 -39 q 242 -53 286 -54 q 143 -40 199 -53 q 77 8 96 -29 q 82 85 58 44 q 118 114 94 107 q 163 119 142 121 q 208 117 185 117 q 242 128 231 118 q 264 216 261 144 q 258 392 267 288 q 250 506 250 496 q 252 569 250 521 q 254 660 254 617 q 252 751 254 704 q 240 828 250 799 q 214 860 231 857 z "},"^":{"ha":575,"x_min":38,"x_max":514,"o":"m 300 808 q 275 753 296 801 q 121 493 178 526 q 49 538 76 468 q 72 658 39 560 q 150 849 104 756 q 217 953 196 942 q 288 972 254 972 q 347 956 321 972 q 397 913 374 940 q 437 853 419 885 q 467 784 454 821 q 489 716 481 747 q 503 657 497 685 q 486 561 513 593 q 424 538 460 529 q 372 581 388 546 q 345 684 361 604 q 300 808 329 764 z "},"_":{"ha":792,"x_min":-47,"x_max":724,"o":"m 543 235 q 676 208 625 251 q 686 118 724 168 q 322 6 618 26 q 132 0 235 -1 q -7 48 32 1 q -13 144 -46 94 q 100 201 19 193 q 293 209 146 206 q 543 235 440 213 z "},"`":{"ha":336,"x_min":88,"x_max":350,"o":"m 163 969 q 283 913 218 988 q 350 763 349 838 q 283 678 350 694 q 147 738 213 661 q 93 883 88 808 q 163 969 99 949 z "},"a":{"ha":819,"x_min":-53,"x_max":753,"o":"m 513 635 q 483 764 511 764 q 389 631 453 764 q 340 540 371 592 q 319 486 313 493 q 429 492 329 478 l 431 493 l 432 493 q 499 524 485 500 q 513 635 513 549 m 194 258 q 38 61 110 85 q -29 113 -14 44 q 42 429 -51 224 q 81 510 60 469 q 122 591 100 546 q 158 669 143 636 q 191 741 172 703 q 225 807 210 779 q 262 863 240 835 q 306 910 283 892 q 358 944 328 929 q 422 966 388 960 q 501 972 457 972 q 597 963 544 971 q 674 900 642 954 q 721 763 706 846 q 744 587 736 679 q 751 397 751 494 q 747 228 750 299 q 739 108 744 158 q 676 10 732 39 q 573 28 619 -19 q 522 183 526 75 q 510 256 519 232 q 484 286 500 281 q 440 287 468 292 q 379 273 411 282 q 297 258 347 264 q 194 258 246 253 z "},"à":{"ha":819,"x_min":-53,"x_max":753,"o":"m 513 635 q 483 764 511 764 q 389 631 453 764 q 340 540 371 592 q 319 486 313 493 q 429 492 329 478 l 431 493 l 432 493 q 499 524 485 500 q 513 635 513 549 m 194 258 q 38 61 110 85 q -29 113 -14 44 q 42 429 -51 224 q 81 510 60 469 q 122 591 100 546 q 158 669 143 636 q 191 741 172 703 q 225 807 210 779 q 262 863 240 835 q 306 910 283 892 q 358 944 328 929 q 422 966 388 960 q 501 972 457 972 q 597 963 544 971 q 674 900 642 954 q 721 763 706 846 q 744 587 736 679 q 751 397 751 494 q 747 228 750 299 q 739 108 744 158 q 676 10 732 39 q 573 28 619 -19 q 522 183 526 75 q 510 256 519 232 q 484 286 500 281 q 440 287 468 292 q 379 273 411 282 q 297 258 347 264 q 194 258 246 253 z "},"á":{"ha":819,"x_min":-53,"x_max":753,"o":"m 513 635 q 483 764 511 764 q 389 631 453 764 q 340 540 371 592 q 319 486 313 493 q 429 492 329 478 l 431 493 l 432 493 q 499 524 485 500 q 513 635 513 549 m 194 258 q 38 61 110 85 q -29 113 -14 44 q 42 429 -51 224 q 81 510 60 469 q 122 591 100 546 q 158 669 143 636 q 191 741 172 703 q 225 807 210 779 q 262 863 240 835 q 306 910 283 892 q 358 944 328 929 q 422 966 388 960 q 501 972 457 972 q 597 963 544 971 q 674 900 642 954 q 721 763 706 846 q 744 587 736 679 q 751 397 751 494 q 747 228 750 299 q 739 108 744 158 q 676 10 732 39 q 573 28 619 -19 q 522 183 526 75 q 510 256 519 232 q 484 286 500 281 q 440 287 468 292 q 379 273 411 282 q 297 258 347 264 q 194 258 246 253 z "},"â":{"ha":819,"x_min":-53,"x_max":753,"o":"m 513 635 q 483 764 511 764 q 389 631 453 764 q 340 540 371 592 q 319 486 313 493 q 429 492 329 478 l 431 493 l 432 493 q 499 524 485 500 q 513 635 513 549 m 194 258 q 38 61 110 85 q -29 113 -14 44 q 42 429 -51 224 q 81 510 60 469 q 122 591 100 546 q 158 669 143 636 q 191 741 172 703 q 225 807 210 779 q 262 863 240 835 q 306 910 283 892 q 358 944 328 929 q 422 966 388 960 q 501 972 457 972 q 597 963 544 971 q 674 900 642 954 q 721 763 706 846 q 744 587 736 679 q 751 397 751 494 q 747 228 750 299 q 739 108 744 158 q 676 10 732 39 q 573 28 619 -19 q 522 183 526 75 q 510 256 519 232 q 484 286 500 281 q 440 287 468 292 q 379 273 411 282 q 297 258 347 264 q 194 258 246 253 z "},"ã":{"ha":819,"x_min":-53,"x_max":753,"o":"m 513 635 q 483 764 511 764 q 389 631 453 764 q 340 540 371 592 q 319 486 313 493 q 429 492 329 478 l 431 493 l 432 493 q 499 524 485 500 q 513 635 513 549 m 194 258 q 38 61 110 85 q -29 113 -14 44 q 42 429 -51 224 q 81 510 60 469 q 122 591 100 546 q 158 669 143 636 q 191 741 172 703 q 225 807 210 779 q 262 863 240 835 q 306 910 283 892 q 358 944 328 929 q 422 966 388 960 q 501 972 457 972 q 597 963 544 971 q 674 900 642 954 q 721 763 706 846 q 744 587 736 679 q 751 397 751 494 q 747 228 750 299 q 739 108 744 158 q 676 10 732 39 q 573 28 619 -19 q 522 183 526 75 q 510 256 519 232 q 484 286 500 281 q 440 287 468 292 q 379 273 411 282 q 297 258 347 264 q 194 258 246 253 z "},"ä":{"ha":819,"x_min":-53,"x_max":753,"o":"m 513 635 q 483 764 511 764 q 389 631 453 764 q 340 540 371 592 q 319 486 313 493 q 429 492 329 478 l 431 493 l 432 493 q 499 524 485 500 q 513 635 513 549 m 194 258 q 38 61 110 85 q -29 113 -14 44 q 42 429 -51 224 q 81 510 60 469 q 122 591 100 546 q 158 669 143 636 q 191 741 172 703 q 225 807 210 779 q 262 863 240 835 q 306 910 283 892 q 358 944 328 929 q 422 966 388 960 q 501 972 457 972 q 597 963 544 971 q 674 900 642 954 q 721 763 706 846 q 744 587 736 679 q 751 397 751 494 q 747 228 750 299 q 739 108 744 158 q 676 10 732 39 q 573 28 619 -19 q 522 183 526 75 q 510 256 519 232 q 484 286 500 281 q 440 287 468 292 q 379 273 411 282 q 297 258 347 264 q 194 258 246 253 z "},"å":{"ha":819,"x_min":-53,"x_max":753,"o":"m 513 635 q 483 764 511 764 q 389 631 453 764 q 340 540 371 592 q 319 486 313 493 q 429 492 329 478 l 431 493 l 432 493 q 499 524 485 500 q 513 635 513 549 m 194 258 q 38 61 110 85 q -29 113 -14 44 q 42 429 -51 224 q 81 510 60 469 q 122 591 100 546 q 158 669 143 636 q 191 741 172 703 q 225 807 210 779 q 262 863 240 835 q 306 910 283 892 q 358 944 328 929 q 422 966 388 960 q 501 972 457 972 q 597 963 544 971 q 674 900 642 954 q 721 763 706 846 q 744 587 736 679 q 751 397 751 494 q 747 228 750 299 q 739 108 744 158 q 676 10 732 39 q 573 28 619 -19 q 522 183 526 75 q 510 256 519 232 q 484 286 500 281 q 440 287 468 292 q 379 273 411 282 q 297 258 347 264 q 194 258 246 253 z "},"b":{"ha":729,"x_min":1,"x_max":686,"o":"m 233 381 q 225 297 231 353 q 217 213 219 240 q 446 269 365 199 q 481 363 501 317 q 338 404 457 418 q 233 381 292 399 m 264 601 q 401 658 324 614 q 486 747 478 701 q 374 776 418 772 q 306 759 331 779 q 272 701 281 739 q 264 601 263 664 m 315 964 q 425 972 371 972 q 524 954 479 971 q 603 913 568 938 q 658 851 639 889 q 681 771 678 814 q 665 673 685 728 q 603 561 646 618 q 607 528 597 554 q 633 468 617 503 q 663 390 649 433 q 678 301 678 347 q 663 210 679 254 q 597 122 647 165 q 464 49 547 79 q 106 39 210 -42 q 31 375 3 119 q 39 461 33 403 q 48 555 44 519 q 60 644 51 590 q 81 734 69 699 q 113 813 92 769 q 160 882 133 856 q 226 931 186 908 q 315 964 265 954 z "},"c":{"ha":647,"x_min":11,"x_max":669,"o":"m 257 217 q 350 286 269 219 q 529 385 481 396 q 574 276 575 375 q 524 153 572 218 q 405 44 475 88 q 274 0 335 1 q 131 40 189 -1 q 48 151 72 82 q 18 306 24 219 q 27 479 13 392 q 67 645 42 567 q 126 778 93 724 q 422 969 261 994 q 601 846 529 954 q 651 658 668 746 q 597 581 640 606 q 532 567 557 558 q 488 599 507 576 q 458 656 469 622 q 433 714 446 689 q 405 751 419 739 q 366 744 390 763 q 308 674 342 726 q 247 532 272 618 q 219 358 221 446 q 257 217 217 271 z "},"ç":{"ha":647,"x_min":11,"x_max":669,"o":"m 257 217 q 350 286 269 219 q 529 385 481 396 q 574 276 575 375 q 524 153 572 218 q 405 44 475 88 q 274 0 335 1 q 131 40 189 -1 q 48 151 72 82 q 18 306 24 219 q 27 479 13 392 q 67 645 42 567 q 126 778 93 724 q 422 969 261 994 q 601 846 529 954 q 651 658 668 746 q 597 581 640 606 q 532 567 557 558 q 488 599 507 576 q 458 656 469 622 q 433 714 446 689 q 405 751 419 739 q 366 744 390 763 q 308 674 342 726 q 247 532 272 618 q 219 358 221 446 q 257 217 217 271 z "},"d":{"ha":785,"x_min":14,"x_max":804,"o":"m 389 325 q 539 502 490 396 q 542 683 588 608 q 360 740 497 758 q 316 712 333 736 q 290 648 299 688 q 278 572 282 608 q 271 490 274 536 q 265 426 268 444 q 258 376 263 406 q 250 331 253 346 q 246 298 247 317 q 247 273 244 279 q 254 260 249 267 q 269 258 260 254 q 296 268 279 261 q 335 290 313 275 q 389 325 357 304 m 321 958 q 635 900 497 1007 q 776 647 754 807 q 664 281 804 451 q 403 79 567 163 q 182 1 267 11 q 63 35 97 -8 q 22 165 28 79 q 35 374 15 251 q 45 474 40 417 q 53 571 50 532 q 64 658 57 610 q 81 740 71 707 q 109 810 90 774 q 155 872 128 846 q 224 920 182 897 q 321 958 265 943 z "},"e":{"ha":672,"x_min":33,"x_max":743,"o":"m 290 553 q 348 567 311 556 q 410 583 385 578 q 466 585 435 589 q 522 564 497 582 q 562 467 571 525 q 499 381 553 410 q 391 347 474 365 q 285 304 308 328 q 290 254 231 253 q 413 272 304 254 q 439 275 432 275 q 581 208 586 275 q 475 85 576 151 q 226 0 349 1 q 43 144 72 -3 q 36 240 33 186 q 43 421 40 304 q 46 513 44 483 q 51 594 47 543 q 60 671 54 646 q 75 735 65 696 q 100 794 85 775 q 137 843 115 814 q 187 887 158 872 q 253 919 215 901 q 338 948 290 938 q 443 967 385 958 q 683 926 601 989 q 713 828 742 882 q 640 769 694 793 q 547 744 596 750 q 464 740 497 738 q 397 739 431 743 q 343 720 364 735 q 308 665 322 706 q 290 553 294 624 z "},"è":{"ha":672,"x_min":33,"x_max":743,"o":"m 290 553 q 348 567 311 556 q 410 583 385 578 q 466 585 435 589 q 522 564 497 582 q 562 467 571 525 q 499 381 553 410 q 391 347 474 365 q 285 304 308 328 q 290 254 231 253 q 413 272 304 254 q 439 275 432 275 q 581 208 586 275 q 475 85 576 151 q 226 0 349 1 q 43 144 72 -3 q 36 240 33 186 q 43 421 40 304 q 46 513 44 483 q 51 594 47 543 q 60 671 54 646 q 75 735 65 696 q 100 794 85 775 q 137 843 115 814 q 187 887 158 872 q 253 919 215 901 q 338 948 290 938 q 443 967 385 958 q 683 926 601 989 q 713 828 742 882 q 640 769 694 793 q 547 744 596 750 q 464 740 497 738 q 397 739 431 743 q 343 720 364 735 q 308 665 322 706 q 290 553 294 624 z "},"é":{"ha":672,"x_min":33,"x_max":743,"o":"m 290 553 q 348 567 311 556 q 410 583 385 578 q 466 585 435 589 q 522 564 497 582 q 562 467 571 525 q 499 381 553 410 q 391 347 474 365 q 285 304 308 328 q 290 254 231 253 q 413 272 304 254 q 439 275 432 275 q 581 208 586 275 q 475 85 576 151 q 226 0 349 1 q 43 144 72 -3 q 36 240 33 186 q 43 421 40 304 q 46 513 44 483 q 51 594 47 543 q 60 671 54 646 q 75 735 65 696 q 100 794 85 775 q 137 843 115 814 q 187 887 158 872 q 253 919 215 901 q 338 948 290 938 q 443 967 385 958 q 683 926 601 989 q 713 828 742 882 q 640 769 694 793 q 547 744 596 750 q 464 740 497 738 q 397 739 431 743 q 343 720 364 735 q 308 665 322 706 q 290 553 294 624 z "},"ê":{"ha":672,"x_min":33,"x_max":743,"o":"m 290 553 q 348 567 311 556 q 410 583 385 578 q 466 585 435 589 q 522 564 497 582 q 562 467 571 525 q 499 381 553 410 q 391 347 474 365 q 285 304 308 328 q 290 254 231 253 q 413 272 304 254 q 439 275 432 275 q 581 208 586 275 q 475 85 576 151 q 226 0 349 1 q 43 144 72 -3 q 36 240 33 186 q 43 421 40 304 q 46 513 44 483 q 51 594 47 543 q 60 671 54 646 q 75 735 65 696 q 100 794 85 775 q 137 843 115 814 q 187 887 158 872 q 253 919 215 901 q 338 948 290 938 q 443 967 385 958 q 683 926 601 989 q 713 828 742 882 q 640 769 694 793 q 547 744 596 750 q 464 740 497 738 q 397 739 431 743 q 343 720 364 735 q 308 665 322 706 q 290 553 294 624 z "},"ë":{"ha":672,"x_min":33,"x_max":743,"o":"m 290 553 q 348 567 311 556 q 410 583 385 578 q 466 585 435 589 q 522 564 497 582 q 562 467 571 525 q 499 381 553 410 q 391 347 474 365 q 285 304 308 328 q 290 254 231 253 q 413 272 304 254 q 439 275 432 275 q 581 208 586 275 q 475 85 576 151 q 226 0 349 1 q 43 144 72 -3 q 36 240 33 186 q 43 421 40 304 q 46 513 44 483 q 51 594 47 543 q 60 671 54 646 q 75 735 65 696 q 100 794 85 775 q 137 843 115 814 q 187 887 158 872 q 253 919 215 901 q 338 948 290 938 q 443 967 385 958 q 683 926 601 989 q 713 828 742 882 q 640 769 694 793 q 547 744 596 750 q 464 740 497 738 q 397 739 431 743 q 343 720 364 735 q 308 665 322 706 q 290 553 294 624 z "},"f":{"ha":632,"x_min":6,"x_max":690,"o":"m 285 546 q 476 549 429 554 q 556 390 643 528 q 490 340 531 353 q 410 329 450 326 q 333 331 371 332 q 270 306 296 331 q 240 222 244 281 q 172 42 231 113 q 54 22 111 -33 q 21 69 36 39 q 8 127 11 88 q 12 226 6 167 q 22 322 18 285 q 37 425 26 360 q 47 492 47 490 q 107 794 79 721 q 254 949 150 911 q 538 968 350 982 q 640 933 601 963 q 685 869 679 904 q 660 800 690 835 q 569 751 631 765 q 435 736 486 732 q 353 734 383 740 q 309 689 324 728 q 285 546 294 650 z "},"g":{"ha":699,"x_min":-12,"x_max":694,"o":"m 400 296 q 243 426 239 367 q 338 492 244 472 q 551 476 451 515 q 651 317 675 428 q 510 108 632 228 q 211 18 351 -46 q 50 226 101 68 q 51 621 -11 417 q 68 667 58 644 q 339 965 168 924 q 575 907 464 996 q 685 731 669 833 q 663 615 693 667 q 610 559 635 568 q 565 570 585 550 q 524 624 544 590 q 483 690 504 657 q 439 745 461 724 q 386 760 417 767 q 321 708 356 753 q 242 557 271 643 q 218 377 213 471 q 275 219 224 283 q 287 212 279 213 q 304 217 294 211 q 324 230 314 222 q 347 247 335 238 q 367 266 358 257 q 385 284 376 275 q 400 296 394 293 z "},"h":{"ha":790,"x_min":-8,"x_max":797,"o":"m 292 521 q 424 525 378 522 q 498 538 469 528 q 533 563 526 549 q 543 605 539 576 q 546 665 547 633 q 555 749 544 696 q 589 860 565 803 q 692 972 635 974 q 767 888 740 971 q 769 642 797 788 q 731 410 768 633 q 668 99 694 188 q 619 26 654 53 q 544 4 585 0 q 474 44 503 8 q 449 115 450 72 q 463 224 449 158 q 478 306 476 289 l 247 290 q 125 32 207 114 q 26 15 64 -28 q 0 174 -7 56 q 15 301 3 228 q 47 463 28 374 q 67 558 65 553 q 76 623 69 574 q 90 712 83 672 q 110 803 97 751 q 140 890 124 856 q 182 949 156 925 q 242 971 208 972 q 310 929 289 968 q 331 831 332 890 q 320 714 329 772 q 301 599 311 656 q 292 521 290 542 z "},"i":{"ha":356,"x_min":-17,"x_max":361,"o":"m 156 856 q 229 960 190 931 q 300 960 268 990 q 342 840 332 929 q 306 431 361 685 q 178 58 250 176 q 81 1 132 -15 q 11 100 29 18 q 34 462 -15 228 q 156 856 83 696 z "},"ì":{"ha":356,"x_min":-17,"x_max":361,"o":"m 156 856 q 229 960 190 931 q 300 960 268 990 q 342 840 332 929 q 306 431 361 685 q 178 58 250 176 q 81 1 132 -15 q 11 100 29 18 q 34 462 -15 228 q 156 856 83 696 z "},"í":{"ha":356,"x_min":-17,"x_max":361,"o":"m 156 856 q 229 960 190 931 q 300 960 268 990 q 342 840 332 929 q 306 431 361 685 q 178 58 250 176 q 81 1 132 -15 q 11 100 29 18 q 34 462 -15 228 q 156 856 83 696 z "},"î":{"ha":356,"x_min":-17,"x_max":361,"o":"m 156 856 q 229 960 190 931 q 300 960 268 990 q 342 840 332 929 q 306 431 361 685 q 178 58 250 176 q 81 1 132 -15 q 11 100 29 18 q 34 462 -15 228 q 156 856 83 696 z "},"ï":{"ha":356,"x_min":-17,"x_max":361,"o":"m 156 856 q 229 960 190 931 q 300 960 268 990 q 342 840 332 929 q 306 431 361 685 q 178 58 250 176 q 81 1 132 -15 q 11 100 29 18 q 34 462 -15 228 q 156 856 83 696 z "},"j":{"ha":681,"x_min":-26,"x_max":693,"o":"m 567 960 q 686 842 681 1013 q 586 283 692 681 q 583 275 585 278 q 489 92 554 163 q 346 6 424 22 q 185 24 268 -11 q 38 143 101 58 q -4 224 13 176 q -24 320 -21 272 q -1 404 -26 368 q 79 446 25 440 q 144 431 117 450 q 184 383 171 413 q 211 320 197 353 q 236 265 225 288 q 270 235 247 242 q 325 251 293 228 q 366 339 347 267 q 400 505 385 411 q 435 694 415 599 q 488 865 454 790 q 567 960 521 940 z "},"k":{"ha":729,"x_min":25,"x_max":740,"o":"m 454 519 q 499 438 456 513 q 590 270 543 364 q 651 114 636 176 q 647 28 664 58 q 597 -3 629 -1 q 527 14 564 -4 q 468 65 490 32 q 402 188 442 103 q 354 286 363 272 q 265 333 285 408 q 250 178 260 313 q 240 100 246 126 q 192 24 228 49 q 121 2 157 -1 q 56 40 85 6 q 26 129 28 74 q 31 231 26 167 q 41 347 36 296 q 54 476 46 399 q 65 575 63 554 q 71 644 67 589 q 79 733 75 699 q 92 814 83 767 q 118 895 101 861 q 158 949 135 929 q 294 794 269 1039 q 300 728 297 769 q 304 688 301 692 q 686 969 574 947 q 735 929 740 981 q 550 628 726 835 q 454 519 506 575 z "},"l":{"ha":639,"x_min":-14,"x_max":615,"o":"m 226 228 q 563 161 481 232 q 563 71 615 117 q 304 1 493 10 q 201 1 247 -1 q 122 13 156 3 q 62 31 88 22 q 22 61 36 39 q -3 99 7 83 q -13 148 -12 114 q -13 203 -14 182 q -3 271 -12 225 q 14 344 7 317 q 35 428 21 371 q 43 461 40 450 q 196 896 125 778 q 258 963 226 946 q 314 964 290 979 q 351 913 338 949 q 363 832 365 878 q 329 635 358 758 q 267 389 300 511 q 226 228 233 267 z "},"m":{"ha":1136,"x_min":33,"x_max":1160,"o":"m 544 658 q 572 701 558 667 q 603 776 586 735 q 644 860 619 818 q 718 934 669 903 q 832 971 767 965 q 956 962 894 976 q 1066 916 1018 947 q 1136 830 1114 885 q 1142 706 1158 775 q 1068 434 1119 621 q 1001 190 1017 247 q 888 11 964 49 q 793 36 829 -18 q 768 175 760 83 q 810 363 774 225 q 879 611 846 500 q 889 756 917 735 q 815 688 865 774 q 776 610 796 654 q 699 407 722 486 q 558 144 638 204 q 474 120 514 113 q 405 161 435 128 q 361 240 375 194 q 328 463 342 308 q 307 653 315 618 q 276 534 286 626 q 258 323 267 442 q 235 144 250 204 q 197 52 222 90 q 142 3 171 14 q 88 26 114 -8 q 49 142 61 60 q 36 310 38 214 q 39 417 35 406 q 47 512 39 422 q 64 668 54 601 q 92 789 74 735 q 149 897 111 850 q 233 963 188 943 q 330 969 278 983 q 425 901 382 956 q 495 768 458 858 q 544 658 532 678 z "},"n":{"ha":868,"x_min":-1,"x_max":878,"o":"m 288 456 q 276 454 281 472 q 263 351 275 443 q 233 181 251 260 q 189 56 215 103 q 120 0 160 6 q 50 26 81 -6 q 10 108 19 57 q 9 269 0 171 q 40 486 18 367 q 64 617 63 606 q 153 858 81 740 q 322 971 239 999 q 431 833 383 950 q 502 569 463 757 q 547 361 542 381 q 585 492 567 389 q 627 715 604 596 q 678 889 650 833 q 728 948 696 925 q 791 973 760 971 q 847 947 822 975 q 874 864 871 919 q 868 753 876 821 q 849 635 860 686 q 826 524 839 583 q 811 460 813 465 q 800 393 807 438 q 788 317 793 349 q 771 240 782 285 q 748 163 760 194 q 717 97 736 131 q 674 42 697 63 q 617 11 650 22 q 543 4 583 0 q 437 52 482 10 q 367 156 392 94 q 327 276 342 217 q 303 389 313 335 q 288 456 293 443 z "},"ñ":{"ha":868,"x_min":-1,"x_max":878,"o":"m 288 456 q 276 454 281 472 q 263 351 275 443 q 233 181 251 260 q 189 56 215 103 q 120 0 160 6 q 50 26 81 -6 q 10 108 19 57 q 9 269 0 171 q 40 486 18 367 q 64 617 63 606 q 153 858 81 740 q 322 971 239 999 q 431 833 383 950 q 502 569 463 757 q 547 361 542 381 q 585 492 567 389 q 627 715 604 596 q 678 889 650 833 q 728 948 696 925 q 791 973 760 971 q 847 947 822 975 q 874 864 871 919 q 868 753 876 821 q 849 635 860 686 q 826 524 839 583 q 811 460 813 465 q 800 393 807 438 q 788 317 793 349 q 771 240 782 285 q 748 163 760 194 q 717 97 736 131 q 674 42 697 63 q 617 11 650 22 q 543 4 583 0 q 437 52 482 10 q 367 156 392 94 q 327 276 342 217 q 303 389 313 335 q 288 456 293 443 z "},"o":{"ha":688,"x_min":10,"x_max":678,"o":"m 260 517 q 278 275 233 356 q 349 254 308 218 q 428 456 400 297 q 411 699 456 617 q 338 722 379 756 q 260 517 285 679 m 329 967 q 594 836 504 1000 q 657 469 676 690 q 526 110 638 243 q 360 6 454 25 q 93 136 185 -29 q 31 504 11 282 q 161 863 50 729 q 329 967 233 949 z "},"ò":{"ha":688,"x_min":10,"x_max":678,"o":"m 260 517 q 278 275 233 356 q 349 254 308 218 q 428 456 400 297 q 411 699 456 617 q 338 722 379 756 q 260 517 285 679 m 329 967 q 594 836 504 1000 q 657 469 676 690 q 526 110 638 243 q 360 6 454 25 q 93 136 185 -29 q 31 504 11 282 q 161 863 50 729 q 329 967 233 949 z "},"ó":{"ha":688,"x_min":10,"x_max":678,"o":"m 260 517 q 278 275 233 356 q 349 254 308 218 q 428 456 400 297 q 411 699 456 617 q 338 722 379 756 q 260 517 285 679 m 329 967 q 594 836 504 1000 q 657 469 676 690 q 526 110 638 243 q 360 6 454 25 q 93 136 185 -29 q 31 504 11 282 q 161 863 50 729 q 329 967 233 949 z "},"ô":{"ha":688,"x_min":10,"x_max":678,"o":"m 260 517 q 278 275 233 356 q 349 254 308 218 q 428 456 400 297 q 411 699 456 617 q 338 722 379 756 q 260 517 285 679 m 329 967 q 594 836 504 1000 q 657 469 676 690 q 526 110 638 243 q 360 6 454 25 q 93 136 185 -29 q 31 504 11 282 q 161 863 50 729 q 329 967 233 949 z "},"õ":{"ha":688,"x_min":10,"x_max":678,"o":"m 260 517 q 278 275 233 356 q 349 254 308 218 q 428 456 400 297 q 411 699 456 617 q 338 722 379 756 q 260 517 285 679 m 329 967 q 594 836 504 1000 q 657 469 676 690 q 526 110 638 243 q 360 6 454 25 q 93 136 185 -29 q 31 504 11 282 q 161 863 50 729 q 329 967 233 949 z "},"ö":{"ha":688,"x_min":10,"x_max":678,"o":"m 260 517 q 278 275 233 356 q 349 254 308 218 q 428 456 400 297 q 411 699 456 617 q 338 722 379 756 q 260 517 285 679 m 329 967 q 594 836 504 1000 q 657 469 676 690 q 526 110 638 243 q 360 6 454 25 q 93 136 185 -29 q 31 504 11 282 q 161 863 50 729 q 329 967 233 949 z "},"ø":{"ha":688,"x_min":10,"x_max":678,"o":"m 260 517 q 278 275 233 356 q 349 254 308 218 q 428 456 400 297 q 411 699 456 617 q 338 722 379 756 q 260 517 285 679 m 329 967 q 594 836 504 1000 q 657 469 676 690 q 526 110 638 243 q 360 6 454 25 q 93 136 185 -29 q 31 504 11 282 q 161 863 50 729 q 329 967 233 949 z "},"p":{"ha":726,"x_min":3,"x_max":747,"o":"m 313 731 q 288 638 299 721 q 282 528 278 556 q 359 529 317 519 q 435 561 401 539 q 494 612 468 583 q 521 669 519 640 q 501 724 522 699 q 406 749 472 749 q 313 731 340 749 m 358 968 q 506 963 435 979 q 628 908 576 946 q 714 815 681 871 q 747 692 747 760 q 715 547 747 625 q 640 431 683 478 q 553 365 596 385 q 466 333 511 344 q 382 316 421 322 q 312 298 343 310 q 260 258 281 286 q 236 181 239 229 q 168 21 226 72 q 76 25 117 -25 q 42 435 3 114 q 50 517 46 468 q 57 599 54 567 q 66 675 60 632 q 81 747 72 718 q 105 810 90 776 q 141 867 119 844 q 192 912 163 890 q 264 947 222 933 q 358 968 306 961 z "},"q":{"ha":779,"x_min":28,"x_max":731,"o":"m 363 289 q 475 469 449 321 q 461 704 500 601 q 357 772 425 801 q 351 771 354 772 q 236 576 263 725 q 254 350 213 443 q 363 289 293 264 m 349 968 q 472 960 415 979 q 565 901 529 942 q 630 803 601 860 q 669 685 658 747 q 683 560 679 622 q 674 447 686 499 q 646 356 664 397 q 616 297 628 314 q 601 259 604 279 q 614 220 597 239 q 672 171 631 201 q 707 69 729 131 q 631 3 688 17 q 510 36 569 -11 q 421 81 472 65 q 325 99 369 97 q 232 115 281 101 q 147 155 183 129 q 80 244 110 181 q 36 407 50 308 q 32 549 29 478 q 59 690 35 619 q 120 817 83 760 q 216 914 157 874 q 349 968 275 954 z "},"r":{"ha":769,"x_min":13,"x_max":710,"o":"m 289 717 q 272 597 281 699 q 267 478 263 496 q 349 504 297 476 q 442 572 400 532 q 501 658 485 613 q 476 738 518 704 q 373 756 443 764 q 289 717 303 747 m 319 961 q 447 971 386 975 q 556 940 508 967 q 638 878 603 914 q 690 791 674 842 q 708 686 707 740 q 688 571 710 632 q 622 451 665 510 q 613 392 601 431 q 645 323 624 354 q 685 240 667 292 q 700 142 704 189 q 683 65 697 99 q 650 13 669 31 q 601 8 631 -4 q 542 67 572 21 q 516 112 529 86 q 494 156 503 138 q 476 195 486 174 q 465 219 467 217 q 333 261 413 315 q 214 85 253 207 q 136 1 190 13 q 46 53 81 -10 q 26 219 14 114 q 34 328 31 264 q 40 444 38 393 q 48 558 42 496 q 64 669 54 621 q 94 769 74 718 q 142 856 114 819 q 216 920 171 892 q 319 961 261 949 z "},"s":{"ha":708,"x_min":-32,"x_max":669,"o":"m 435 261 q 379 297 415 282 q 305 322 343 313 q 223 344 267 331 q 145 374 179 357 q 83 424 111 392 q 49 501 56 456 q 54 618 43 547 q 102 749 68 683 q 185 867 136 814 q 302 950 235 921 q 442 968 369 979 q 610 844 551 953 q 650 630 668 735 q 553 519 632 525 q 486 535 511 517 q 453 585 461 554 q 442 647 446 615 q 428 706 438 679 q 401 739 419 732 q 341 713 376 747 q 283 630 306 679 q 268 554 261 581 q 342 524 296 536 q 432 501 389 511 q 519 474 475 492 q 598 419 564 457 q 647 321 632 381 q 650 215 664 263 q 605 129 636 167 q 526 65 574 92 q 430 22 479 38 q 329 1 381 7 q 202 7 271 -6 q 74 51 133 19 q -8 132 15 82 q 1 250 -31 182 q 42 307 22 292 q 82 315 63 322 q 123 292 101 308 q 174 257 144 275 q 239 228 204 239 q 325 224 274 217 q 435 261 376 231 z "},"t":{"ha":806,"x_min":42,"x_max":874,"o":"m 365 747 q 51 878 43 813 q 256 957 60 929 q 524 971 382 974 q 575 972 539 971 q 640 972 611 972 q 706 969 668 972 q 771 959 743 967 q 824 938 799 951 q 861 901 849 925 q 871 846 874 878 q 838 766 868 789 q 767 745 808 743 q 685 750 726 747 q 612 735 644 753 q 572 667 579 717 q 561 597 567 628 q 544 500 556 567 q 519 381 532 433 q 488 263 506 329 q 447 149 469 196 q 400 62 425 101 q 344 8 375 22 q 281 6 314 -7 q 221 101 229 26 q 236 275 213 176 q 291 470 260 374 q 347 646 322 567 q 365 747 371 725 z "},"u":{"ha":806,"x_min":31,"x_max":836,"o":"m 651 964 q 814 844 790 1007 q 751 439 836 688 q 586 128 676 219 q 423 15 503 43 q 281 9 343 -14 q 168 90 219 32 q 86 228 117 147 q 44 405 56 310 q 42 593 32 500 q 51 648 44 617 q 69 720 57 679 q 95 799 81 761 q 130 874 110 838 q 174 931 150 910 q 227 961 197 953 q 290 951 257 969 q 326 867 322 935 q 315 722 329 799 q 286 556 300 646 q 275 422 272 465 q 354 257 286 250 q 478 378 410 264 q 521 465 503 421 q 552 605 540 517 q 568 763 564 693 q 592 892 572 833 q 651 964 613 951 z "},"ù":{"ha":806,"x_min":31,"x_max":836,"o":"m 651 964 q 814 844 790 1007 q 751 439 836 688 q 586 128 676 219 q 423 15 503 43 q 281 9 343 -14 q 168 90 219 32 q 86 228 117 147 q 44 405 56 310 q 42 593 32 500 q 51 648 44 617 q 69 720 57 679 q 95 799 81 761 q 130 874 110 838 q 174 931 150 910 q 227 961 197 953 q 290 951 257 969 q 326 867 322 935 q 315 722 329 799 q 286 556 300 646 q 275 422 272 465 q 354 257 286 250 q 478 378 410 264 q 521 465 503 421 q 552 605 540 517 q 568 763 564 693 q 592 892 572 833 q 651 964 613 951 z "},"ú":{"ha":806,"x_min":31,"x_max":836,"o":"m 651 964 q 814 844 790 1007 q 751 439 836 688 q 586 128 676 219 q 423 15 503 43 q 281 9 343 -14 q 168 90 219 32 q 86 228 117 147 q 44 405 56 310 q 42 593 32 500 q 51 648 44 617 q 69 720 57 679 q 95 799 81 761 q 130 874 110 838 q 174 931 150 910 q 227 961 197 953 q 290 951 257 969 q 326 867 322 935 q 315 722 329 799 q 286 556 300 646 q 275 422 272 465 q 354 257 286 250 q 478 378 410 264 q 521 465 503 421 q 552 605 540 517 q 568 763 564 693 q 592 892 572 833 q 651 964 613 951 z "},"û":{"ha":806,"x_min":31,"x_max":836,"o":"m 651 964 q 814 844 790 1007 q 751 439 836 688 q 586 128 676 219 q 423 15 503 43 q 281 9 343 -14 q 168 90 219 32 q 86 228 117 147 q 44 405 56 310 q 42 593 32 500 q 51 648 44 617 q 69 720 57 679 q 95 799 81 761 q 130 874 110 838 q 174 931 150 910 q 227 961 197 953 q 290 951 257 969 q 326 867 322 935 q 315 722 329 799 q 286 556 300 646 q 275 422 272 465 q 354 257 286 250 q 478 378 410 264 q 521 465 503 421 q 552 605 540 517 q 568 763 564 693 q 592 892 572 833 q 651 964 613 951 z "},"ü":{"ha":806,"x_min":31,"x_max":836,"o":"m 651 964 q 814 844 790 1007 q 751 439 836 688 q 586 128 676 219 q 423 15 503 43 q 281 9 343 -14 q 168 90 219 32 q 86 228 117 147 q 44 405 56 310 q 42 593 32 500 q 51 648 44 617 q 69 720 57 679 q 95 799 81 761 q 130 874 110 838 q 174 931 150 910 q 227 961 197 953 q 290 951 257 969 q 326 867 322 935 q 315 722 329 799 q 286 556 300 646 q 275 422 272 465 q 354 257 286 250 q 478 378 410 264 q 521 465 503 421 q 552 605 540 517 q 568 763 564 693 q 592 892 572 833 q 651 964 613 951 z "},"v":{"ha":854,"x_min":51,"x_max":933,"o":"m 93 886 q 140 960 110 939 q 201 967 169 982 q 257 904 233 951 q 273 866 265 888 q 285 819 281 844 q 294 769 290 793 q 300 713 297 746 q 304 658 303 681 q 306 598 306 635 q 308 541 307 561 q 308 483 308 521 q 310 418 310 439 q 311 361 310 397 q 315 311 313 325 q 322 276 318 297 q 332 252 326 254 q 347 248 338 250 q 367 261 356 246 q 394 298 379 276 q 429 357 410 319 q 472 444 449 394 q 557 627 479 458 q 678 878 635 796 q 786 969 715 951 q 888 933 856 985 q 856 708 933 860 q 801 585 829 656 q 751 458 772 515 q 703 335 731 400 q 651 221 676 271 q 588 124 625 171 q 510 50 551 78 q 414 9 469 22 q 292 3 358 -4 q 165 84 218 11 q 90 262 113 157 q 60 485 67 367 q 63 710 53 604 q 93 886 72 815 z "},"w":{"ha":1039,"x_min":67,"x_max":1092,"o":"m 692 381 q 893 910 800 742 q 968 971 919 960 q 1053 950 1017 982 q 1086 858 1090 918 q 1067 785 1085 833 q 1021 675 1049 736 q 986 596 993 614 q 931 437 975 565 q 849 206 888 308 q 783 72 810 103 q 662 2 736 13 q 528 39 588 -8 q 481 115 494 65 q 472 206 468 164 q 476 286 475 249 q 472 328 476 324 q 236 33 342 26 q 103 242 149 39 q 72 525 75 364 q 70 563 72 528 q 67 635 68 599 q 67 716 67 671 q 72 805 68 761 q 82 879 75 849 q 116 952 93 929 q 163 970 139 975 q 211 941 188 965 q 247 879 235 917 q 276 629 272 811 q 285 422 281 447 q 378 672 294 494 q 511 863 461 850 q 597 851 564 875 q 642 780 629 826 q 661 672 654 733 q 667 555 668 611 q 672 449 667 499 q 692 381 678 400 z "},"x":{"ha":746,"x_min":-56,"x_max":794,"o":"m 156 96 q -15 15 33 -26 q -19 163 -56 50 q 157 429 28 307 q 195 510 193 464 q 178 596 197 556 q 131 697 158 636 q 96 800 104 757 q 113 951 75 907 q 214 960 151 994 q 319 831 276 925 q 349 767 331 807 q 368 722 363 735 q 384 698 374 710 q 398 685 394 686 q 415 692 401 685 q 437 710 428 700 q 469 746 446 721 q 553 836 517 800 q 739 913 661 946 q 792 822 790 890 q 768 736 793 778 q 633 594 736 688 q 500 458 529 501 q 493 396 485 435 q 524 317 501 357 q 565 229 546 276 q 590 141 585 182 q 572 58 596 100 q 536 16 554 31 q 500 2 518 1 q 467 8 482 3 q 435 33 451 14 q 406 68 418 53 q 379 112 394 83 q 356 156 364 140 q 336 197 349 171 q 297 250 311 250 q 251 206 283 250 q 156 96 201 140 z "},"y":{"ha":732,"x_min":44,"x_max":807,"o":"m 781 949 q 793 858 806 914 q 747 747 781 801 q 665 625 714 693 q 572 497 617 557 q 492 370 528 438 q 446 250 456 303 q 400 107 436 186 q 348 28 375 54 q 297 3 321 1 q 254 22 274 4 q 224 72 235 39 q 213 144 213 106 q 223 228 213 178 q 243 318 233 278 q 253 408 253 358 q 236 494 253 457 q 151 649 226 515 q 67 828 75 782 q 104 968 46 944 q 228 921 157 989 q 285 849 258 892 q 320 785 303 819 q 347 728 338 750 q 367 686 356 707 q 387 659 378 665 q 409 655 396 653 q 439 674 422 657 q 479 724 456 690 q 506 762 485 731 q 544 815 528 793 q 587 868 561 836 q 635 919 613 900 q 684 953 658 938 q 734 968 710 969 q 781 949 758 967 z "},"ý":{"ha":732,"x_min":44,"x_max":807,"o":"m 781 949 q 793 858 806 914 q 747 747 781 801 q 665 625 714 693 q 572 497 617 557 q 492 370 528 438 q 446 250 456 303 q 400 107 436 186 q 348 28 375 54 q 297 3 321 1 q 254 22 274 4 q 224 72 235 39 q 213 144 213 106 q 223 228 213 178 q 243 318 233 278 q 253 408 253 358 q 236 494 253 457 q 151 649 226 515 q 67 828 75 782 q 104 968 46 944 q 228 921 157 989 q 285 849 258 892 q 320 785 303 819 q 347 728 338 750 q 367 686 356 707 q 387 659 378 665 q 409 655 396 653 q 439 674 422 657 q 479 724 456 690 q 506 762 485 731 q 544 815 528 793 q 587 868 561 836 q 635 919 613 900 q 684 953 658 938 q 734 968 710 969 q 781 949 758 967 z "},"ÿ":{"ha":732,"x_min":44,"x_max":807,"o":"m 781 949 q 793 858 806 914 q 747 747 781 801 q 665 625 714 693 q 572 497 617 557 q 492 370 528 438 q 446 250 456 303 q 400 107 436 186 q 348 28 375 54 q 297 3 321 1 q 254 22 274 4 q 224 72 235 39 q 213 144 213 106 q 223 228 213 178 q 243 318 233 278 q 253 408 253 358 q 236 494 253 457 q 151 649 226 515 q 67 828 75 782 q 104 968 46 944 q 228 921 157 989 q 285 849 258 892 q 320 785 303 819 q 347 728 338 750 q 367 686 356 707 q 387 659 378 665 q 409 655 396 653 q 439 674 422 657 q 479 724 456 690 q 506 762 485 731 q 544 815 528 793 q 587 868 561 836 q 635 919 613 900 q 684 953 658 938 q 734 968 710 969 q 781 949 758 967 z "},"z":{"ha":700,"x_min":-35,"x_max":725,"o":"m 454 740 q 68 772 97 699 q 154 878 51 817 q 435 969 282 954 q 607 949 540 981 q 700 867 675 917 q 708 762 725 818 q 653 646 690 706 q 561 525 617 586 q 456 414 506 464 q 359 317 406 364 q 297 249 313 271 q 633 175 626 251 q 524 76 639 129 q 210 0 375 7 q 1 56 61 -6 q -31 127 -29 86 q -12 212 -33 168 q 46 305 8 256 q 129 401 83 354 q 226 498 175 449 q 321 589 276 547 q 402 672 365 631 q 454 740 439 713 z "},"{":{"ha":699,"x_min":21,"x_max":660,"o":"m 417 128 q 461 108 435 110 q 509 112 488 106 q 557 113 531 118 q 601 83 583 108 q 600 -47 660 10 q 450 -93 546 -100 q 263 24 326 -83 q 229 99 242 57 q 219 232 214 150 q 221 329 224 314 q 201 356 215 351 q 169 353 188 360 q 132 340 151 346 q 90 342 113 333 q 50 381 67 350 q 24 443 28 417 q 33 488 21 469 q 63 521 44 506 q 105 553 82 536 q 147 592 128 571 q 176 649 165 614 q 185 729 188 685 q 294 1093 163 1026 q 464 1079 371 1132 q 547 988 535 1039 q 478 913 561 928 q 446 908 463 910 q 385 885 406 906 q 359 828 364 865 q 354 751 354 792 q 351 653 354 711 q 338 547 349 594 q 344 499 331 522 q 378 438 358 475 q 400 350 397 400 q 396 279 401 331 q 394 189 390 228 q 417 128 397 150 z "},"|":{"ha":328,"x_min":24,"x_max":279,"o":"m 178 968 q 235 960 213 979 q 266 899 258 942 q 276 806 274 857 q 272 693 278 756 q 260 583 267 631 q 247 486 254 535 q 238 424 239 438 q 232 329 236 407 q 222 180 228 251 q 204 28 215 108 q 173 -103 193 -51 q 126 -160 153 -154 q 67 -149 90 -169 q 35 -87 43 -129 q 25 6 26 -44 q 30 117 24 57 q 43 227 36 178 q 57 324 50 276 q 65 385 64 371 q 71 479 67 399 q 81 628 75 560 q 99 777 88 697 q 131 909 111 857 q 178 968 150 961 z "},"}":{"ha":744,"x_min":57,"x_max":678,"o":"m 97 83 q 141 113 115 108 q 189 112 167 118 q 237 108 211 106 q 281 128 263 110 q 304 189 301 150 q 302 279 307 228 q 299 350 297 331 q 321 438 301 400 q 353 499 340 475 q 361 547 367 522 q 346 653 349 594 q 344 751 343 711 q 340 828 344 792 q 314 885 335 865 q 253 908 293 906 q 149 974 149 915 q 217 1068 150 1022 q 385 1100 303 1126 q 517 814 514 1058 q 514 729 517 774 q 522 649 511 685 q 552 592 533 614 q 594 553 571 571 q 635 521 617 536 q 666 488 654 506 q 674 443 678 469 q 649 381 671 417 q 608 342 631 350 q 567 340 586 333 q 528 353 547 346 q 497 356 510 360 q 478 329 483 351 q 479 232 475 314 q 468 99 483 150 q 306 -81 429 -42 q 131 -71 211 -112 q 71 33 58 -32 q 97 83 76 58 z "},"~":{"ha":642,"x_min":11,"x_max":638,"o":"m 614 517 q 552 422 589 456 q 469 381 515 388 q 376 383 422 375 q 272 415 329 392 q 236 420 244 425 q 220 399 228 415 q 208 367 213 383 q 185 334 204 350 q 136 314 167 318 q 34 378 56 304 q 60 535 13 451 q 222 635 118 633 q 357 597 286 636 q 402 580 386 581 q 426 590 418 579 q 440 613 433 600 q 465 640 447 626 q 511 658 483 654 q 605 620 572 667 q 614 517 638 574 z "}," ":{"ha":438,"x_min":0,"x_max":0,"o":""},"­":{"ha":0,"x_min":0,"x_max":0,"o":""}}}
